<svg width="466" height="459" viewBox="0 0 466 459" fill="none" xmlns="http://www.w3.org/2000/svg">
<g clip-path="url(#clip0_6080_143)">
<path d="M89.7081 118.645L86.8877 115.751C88.6897 114.03 89.7865 112.701 90.2565 111.762C90.7268 110.824 90.7268 109.964 90.2565 109.103C89.7865 108.243 88.6113 106.914 86.8877 105.115L67.3787 85.3279C65.6551 83.5292 64.3231 82.3561 63.4612 81.8869C62.5995 81.3395 61.7376 81.3395 60.7973 81.8087C59.8572 82.2778 58.5253 83.3727 56.7233 85.0935L53.9026 82.1996L83.3618 53.3408L93.4688 63.5861L90.2565 66.7144C88.0629 64.4465 86.4177 63.0387 85.3206 62.4913C84.2238 61.9438 83.0486 61.9438 81.795 62.6477C80.5415 63.3516 78.5827 64.9939 75.9188 67.4965L67.8487 75.3956L80.0711 87.8308L84.7722 83.2165C86.2609 81.7304 87.2793 80.5574 87.671 79.697C88.0629 78.8369 88.0629 78.0547 87.671 77.2726C87.2793 76.4904 86.3393 75.3956 84.8506 73.9096L88.0629 70.7813L100.364 83.2947L97.1514 86.423C95.8195 85.0935 94.8008 84.1548 94.0175 83.7639C93.3123 83.3727 92.5288 83.3727 91.6668 83.7639C90.8052 84.1548 89.6297 85.0935 88.1413 86.5792L83.4402 91.1935L96.6811 104.645L105.3 96.1988C107.964 93.6179 109.609 91.7409 110.236 90.4114C110.941 89.1601 110.941 87.9088 110.392 86.8139C109.844 85.7191 108.355 83.9204 106.005 81.5739L109.217 78.4457L119.638 89.0039L89.6297 118.41L89.7081 118.645Z" fill="#601C1D"/>
<path d="M119.327 84.3084C121.364 83.1353 122.774 82.1188 123.401 81.4149C124.027 80.711 124.184 79.8506 123.949 78.9122C123.714 77.9736 122.931 76.4096 121.677 74.2196L113.842 60.7679C112.588 58.5782 111.57 57.0922 110.943 56.3883C110.238 55.6844 109.454 55.4496 108.514 55.6061C107.574 55.7626 106.007 56.4665 103.97 57.6396L102.011 54.3548L113.842 47.5508L117.681 54.1201C117.603 51.3048 118.151 48.6456 119.327 46.2213C120.502 43.7969 122.46 41.7634 125.281 40.1209C129.042 37.9312 132.567 37.54 136.015 38.8696C139.462 40.1991 142.518 43.1712 145.26 47.9417L150.745 57.4831C151.998 59.673 152.938 61.0808 153.643 61.7844C154.348 62.4883 155.132 62.7231 156.072 62.5666C157.012 62.4104 158.501 61.7065 160.616 60.5331L162.575 63.8961L144.868 74.1414L142.91 70.7784C144.868 69.6836 146.122 68.7452 146.749 68.0413C147.375 67.3374 147.532 66.477 147.219 65.5387C146.905 64.6001 146.122 63.0361 144.868 60.9244L140.167 52.8688C135.701 45.2044 131.001 42.78 126.143 45.5956C124.341 46.6122 122.93 48.0982 121.99 49.897C121.05 51.6957 120.58 53.8856 120.815 56.31C120.972 58.7344 121.912 61.3935 123.479 64.1309L127.475 71.0131C128.728 73.2031 129.747 74.6888 130.374 75.3927C131.001 76.0966 131.784 76.3314 132.724 76.2531C133.586 76.0966 135.075 75.471 137.033 74.2979L138.992 77.6609L121.285 87.9062L119.327 84.5431V84.3084Z" fill="#601C1D"/>
<path d="M170.253 60.2222C167.824 59.0488 166.022 56.7027 164.846 53.1052L157.403 30.7377L150.744 32.9274L149.49 29.1735C151.841 28.3914 153.486 27.5311 154.348 26.6708C155.21 25.8106 155.601 24.6374 155.523 23.3079C155.445 21.9783 154.896 19.8667 154.034 17.0512L159.441 15.2524L162.496 24.4028L172.447 21.1181L173.857 25.2631L163.906 28.5478L171.349 50.837C172.055 52.8705 172.995 54.2783 174.17 55.0605C175.345 55.8423 176.756 55.9988 178.323 55.5296C179.968 54.9822 180.986 53.9653 181.378 52.4796C181.77 50.9935 181.378 48.7256 180.438 45.7535L179.654 43.3292L183.807 41.9214L184.591 44.3457C186.001 48.6474 186.314 52.1666 185.374 54.7475C184.434 57.3284 182.318 59.1271 179.028 60.3001C175.659 61.3953 172.76 61.3953 170.331 60.2222H170.253Z" fill="#601C1D"/>
<path d="M198.222 52.5558C195.558 51.2262 193.364 49.1145 191.64 46.2992C189.917 43.4836 188.82 40.1206 188.35 36.1322C187.88 32.1436 188.115 28.6242 189.133 25.4176C190.152 22.2111 191.719 19.7084 193.991 17.7532C196.263 15.798 199.005 14.6249 202.296 14.2339C205.43 13.8428 208.25 14.2339 210.836 15.2506C213.422 16.3455 215.537 17.9097 217.182 20.1777L216.242 12.2786C215.929 9.77602 215.615 8.13363 215.302 7.19515C214.988 6.25663 214.283 5.70919 213.343 5.47458C212.403 5.23993 210.758 5.31815 208.329 5.55276L207.859 1.64237L221.57 0L226.271 39.2605C226.584 41.7631 226.898 43.4836 227.211 44.4223C227.524 45.2823 228.151 45.908 229.091 46.0645C230.031 46.2992 231.677 46.221 234.106 45.9863L234.576 49.8967L221.021 51.5392L220.238 44.7349C219.141 47.0814 217.574 49.1145 215.38 50.8353C213.186 52.4776 210.444 53.5724 207.154 53.9636C203.785 54.3545 200.807 53.9636 198.144 52.5558H198.222ZM217.025 43.4054C218.828 40.4336 219.454 36.7579 218.906 32.3783C218.357 27.9985 216.869 24.5573 214.44 22.1329C212.011 19.7084 208.956 18.6917 205.273 19.161C201.747 19.552 199.162 21.1944 197.438 24.0881C195.715 26.9818 195.088 30.6576 195.636 35.1153C196.185 39.6514 197.595 43.0927 199.945 45.5171C202.296 47.9415 205.195 48.8801 208.72 48.4889C212.403 48.0197 215.067 46.3775 216.869 43.4054H217.025Z" fill="#601C1D"/>
<path d="M245.468 49.9705C242.726 48.0153 240.768 45.4348 239.436 42.3062C238.104 39.1779 237.712 35.5804 238.104 31.5917C238.574 27.6032 239.749 24.162 241.708 21.2683C243.666 18.3746 246.174 16.1848 249.308 14.777C252.363 13.3693 255.811 12.9001 259.493 13.2911C263.097 13.6821 266.153 14.8552 268.66 16.8105C271.167 18.7656 272.969 21.2683 273.988 24.3184C275.084 27.3685 275.398 30.7315 275.006 34.4856C274.928 35.5022 274.771 36.2843 274.693 36.7535L245.234 33.4687C244.842 37.7701 245.704 41.2113 247.662 43.8705C249.699 46.5296 252.598 48.0936 256.359 48.4848C259.336 48.7975 261.844 48.3283 263.802 46.9987C265.839 45.6692 267.249 44.1831 268.19 42.4626L273.361 43.0101C272.656 44.9653 271.48 46.764 269.835 48.4848C268.19 50.2053 266.074 51.5348 263.567 52.4735C260.982 53.4118 258.161 53.7248 254.949 53.3336C251.266 52.9426 248.132 51.7696 245.39 49.8144L245.468 49.9705ZM268.268 31.5917C268.66 28.2288 267.955 25.3351 266.309 22.7543C264.586 20.1734 262.157 18.7656 258.866 18.3746C255.811 18.0618 253.068 18.8439 250.639 20.7209C248.211 22.676 246.644 25.4133 245.86 29.0109L268.347 31.5135L268.268 31.5917Z" fill="#601C1D"/>
<path d="M286.131 57.0958C283.937 54.5932 282.527 51.6214 281.978 48.2583C281.43 44.8171 281.822 41.2196 283.154 37.3874C284.408 33.7117 286.288 30.6616 288.795 28.3153C291.302 25.8909 294.123 24.3267 297.257 23.5446C300.391 22.7625 303.681 22.9972 306.972 24.1703C309.399 25.0306 311.359 26.1255 312.692 27.455C314.022 28.7846 315.198 30.1923 316.216 31.8348C316.843 32.8513 317.315 33.3988 317.55 33.477C318.019 33.6335 318.334 33.3205 318.645 32.6166L319.664 29.6448L323.583 30.9744L318.488 45.6775L314.102 44.1914C314.729 40.9849 314.414 38.0131 313.238 35.354C312.066 32.6949 309.871 30.7398 306.58 29.6448C302.976 28.3935 299.764 28.7064 296.865 30.5052C293.966 32.3039 291.772 35.354 290.284 39.5774C288.717 43.957 288.638 47.8674 289.892 51.1522C291.224 54.4367 293.653 56.7049 297.178 57.9562C299.764 58.8948 302.193 58.8948 304.308 58.1127C306.423 57.3305 308.147 56.1575 309.399 54.5932L314.337 56.314C312.377 59.4422 309.714 61.6319 306.189 62.9614C302.663 64.291 298.824 64.2128 294.593 62.8049C291.145 61.6319 288.325 59.7549 286.053 57.2523L286.131 57.0958Z" fill="#601C1D"/>
<path d="M316.451 65.1441C318.488 66.3955 319.975 67.1776 320.917 67.4123C321.858 67.6468 322.719 67.4123 323.345 66.7864C324.052 66.0828 325.07 64.675 326.401 62.5633L341.522 38.8662C342.933 36.6763 343.717 35.1905 344.109 34.3302C344.42 33.3918 344.266 32.6097 343.64 31.8275C343.01 31.0454 341.68 30.0287 339.72 28.7774L341.837 25.4927L353.509 32.9223L336.899 58.9658L351.237 56.8541C352.648 56.6976 353.589 56.4632 354.216 56.3067C354.842 56.1502 355.234 55.8375 355.469 55.5246C355.783 55.0554 355.626 54.508 355.157 53.8823C354.685 53.2567 353.589 52.3963 351.787 51.3014L353.824 48.0949L370.748 58.8876L368.711 62.0941C367.143 61.0772 365.81 60.5298 364.792 60.2954C363.773 60.0606 361.894 60.2954 359.15 60.6081L349.124 62.0941L349.75 80.3947C349.75 82.5064 349.907 83.9924 350.062 84.9307C350.219 85.8694 350.611 86.5733 351.08 87.0424C351.552 87.5899 352.49 88.2155 353.746 89.0759L351.629 92.3607L335.097 81.8025L337.214 78.5177C338.702 79.4563 339.955 80.082 340.739 80.3164C341.522 80.5511 342.149 80.3164 342.541 79.769C343.01 79.0651 343.167 77.5793 343.01 75.2329L342.618 62.8763L333.452 64.2058L332.119 66.3172C330.789 68.4289 329.928 69.915 329.613 70.8533C329.302 71.7919 329.379 72.5738 329.928 73.2777C330.474 73.9816 331.65 74.9202 333.452 76.0933L331.338 79.3781L314.257 68.5072L316.374 65.2224L316.451 65.1441Z" fill="#601C1D"/>
<path d="M359.545 98.46C358.684 95.2535 358.761 91.9687 359.703 88.6839C360.641 85.3991 362.6 82.3491 365.421 79.5335C368.242 76.7182 371.377 74.8412 374.744 73.7461C378.114 72.7295 381.404 72.6512 384.697 73.4334C387.987 74.2935 390.884 76.0143 393.548 78.6734C396.134 81.2543 397.702 84.0696 398.486 87.1196C399.269 90.1699 399.035 93.22 397.936 96.3483C396.841 99.3983 394.958 102.214 392.295 104.873C391.591 105.577 391.042 106.124 390.573 106.437L369.729 85.3991C366.754 88.5274 365.187 91.7339 365.109 95.0187C365.029 98.3817 366.282 101.354 369.026 104.091C371.14 106.203 373.334 107.376 375.763 107.688C378.114 107.923 380.228 107.688 382.03 106.907L385.715 110.582C383.913 111.677 381.876 112.381 379.525 112.694C377.173 113.007 374.667 112.694 372.161 111.834C369.575 110.973 367.146 109.409 364.952 107.141C362.366 104.56 360.641 101.588 359.78 98.3817L359.545 98.46ZM388.848 98.46C391.199 96.1135 392.529 93.3765 392.844 90.3261C393.156 87.2761 392.137 84.617 389.789 82.2708C387.595 80.0809 385.009 78.9861 381.876 78.9861C378.818 78.9861 375.843 80.0809 372.942 82.4273L388.848 98.46Z" fill="#601C1D"/>
<path d="M394.489 140.695C394.881 137.723 396.057 134.986 398.171 132.405C400.285 129.824 403.105 127.713 406.71 125.914C410.315 124.115 413.762 123.177 417.052 123.099C420.344 122.942 423.319 123.646 425.905 125.132C428.492 126.618 430.528 128.808 431.939 131.78C433.349 134.595 433.976 137.41 433.818 140.226C433.664 143.042 432.88 145.544 431.312 147.89L438.441 144.371C440.716 143.276 442.203 142.416 442.907 141.712C443.691 141.086 444.005 140.304 443.848 139.287C443.691 138.349 443.144 136.785 442.046 134.673L445.573 132.953L451.684 145.31L416.19 162.828C413.919 164.001 412.351 164.862 411.648 165.409C410.941 166.035 410.629 166.817 410.706 167.755C410.784 168.694 411.413 170.258 412.509 172.37L408.984 174.09L402.951 161.89L409.139 158.84C406.556 158.605 404.047 157.823 401.775 156.259C399.424 154.773 397.544 152.505 396.134 149.611C394.646 146.639 394.097 143.589 394.489 140.617V140.695ZM409.373 155.32C412.743 156.024 416.425 155.32 420.422 153.443C424.418 151.488 427.081 148.985 428.569 145.857C430.059 142.729 429.979 139.522 428.334 136.237C426.77 133.109 424.341 131.154 421.048 130.528C417.758 129.903 414.076 130.528 410.003 132.562C405.926 134.595 403.105 137.098 401.618 140.07C400.13 143.042 400.208 146.17 401.775 149.376C403.42 152.661 405.926 154.694 409.296 155.32H409.373Z" fill="#601C1D"/>
<path d="M412.351 175.108C412.978 177.376 413.604 178.94 414.154 179.723C414.7 180.505 415.484 180.896 416.425 180.896C417.443 180.896 419.088 180.505 421.517 179.879L436.559 175.734C438.987 175.03 440.635 174.483 441.496 174.013C442.357 173.544 442.827 172.84 442.907 171.823C442.984 170.885 442.749 169.243 442.046 166.896L445.727 165.88L449.409 179.175L423.319 186.448C420.891 187.152 419.246 187.7 418.382 188.169C417.521 188.638 417.052 189.342 416.971 190.359C416.894 191.376 417.209 192.94 417.835 195.286L414.073 196.303L408.432 176.281L412.194 175.265L412.351 175.108ZM454.109 169.947C454.736 168.852 455.754 168.07 457.087 167.757C458.498 167.366 459.751 167.522 460.849 168.148C461.945 168.773 462.729 169.79 463.121 171.198C463.513 172.527 463.355 173.779 462.729 174.874C462.102 175.969 461.084 176.751 459.674 177.142C458.34 177.533 457.087 177.376 455.992 176.751C454.893 176.125 454.109 175.108 453.798 173.779C453.406 172.371 453.563 171.12 454.19 170.025L454.109 169.947Z" fill="#601C1D"/>
<path d="M417.678 207.333C419.011 204.283 421.125 201.78 423.946 199.825C426.767 197.87 430.137 196.697 434.133 196.306C438.126 195.915 441.731 196.306 445.024 197.636C448.314 198.965 450.9 200.92 452.937 203.657C454.973 206.395 456.149 209.601 456.541 213.277C456.933 216.875 456.384 220.081 455.051 222.897C453.72 225.712 451.603 227.98 448.863 229.701C446.119 231.421 442.83 232.438 439.148 232.829C438.126 232.907 437.346 232.986 436.796 232.986L433.741 203.579C429.43 204.127 426.22 205.691 424.026 208.193C421.832 210.696 420.971 213.903 421.36 217.657C421.674 220.629 422.693 222.975 424.338 224.617C426.063 226.338 427.865 227.433 429.667 227.902L430.214 233.064C428.177 232.829 426.14 232.047 424.103 230.796C422.066 229.544 420.341 227.824 418.854 225.556C417.366 223.288 416.502 220.55 416.19 217.344C415.799 213.668 416.268 210.305 417.678 207.255V207.333ZM440.555 225.634C443.925 225.321 446.589 223.992 448.783 221.802C450.9 219.612 451.838 216.875 451.446 213.59C451.134 210.54 449.801 208.037 447.372 206.082C444.944 204.127 441.966 203.188 438.207 203.188L440.555 225.634Z" fill="#601C1D"/>
<path d="M415.721 268.721C417.132 266.766 418.699 265.045 420.579 263.481C421.755 262.386 422.381 261.682 422.461 261.37C422.539 260.822 422.069 260.509 420.971 260.275L417.132 259.493L418.15 254.878L434.605 258.398L433.664 262.934C431.312 263.012 429.041 263.638 426.77 264.889C424.575 266.062 422.616 267.705 421.051 269.816C419.483 271.928 418.385 274.274 417.838 276.933C417.212 279.905 417.366 282.408 418.385 284.363C419.403 286.318 421.051 287.569 423.4 288.117C425.359 288.508 427.081 288.273 428.572 287.335C430.14 286.396 431.47 285.067 432.646 283.424C433.821 281.782 435.151 279.514 436.719 276.542C438.679 273.022 440.324 270.285 441.811 268.252C443.222 266.218 445.104 264.655 447.298 263.481C449.489 262.308 452.076 261.995 455.054 262.621C459.362 263.559 462.417 265.828 464.219 269.425C466.102 273.022 466.494 277.324 465.395 282.251C464.769 285.379 463.75 287.804 462.417 289.525C461.087 291.245 459.596 292.809 457.874 294.217C456.856 294.999 456.229 295.625 456.229 296.016C456.149 296.563 456.699 296.954 458.032 297.189L461.164 297.893L460.146 302.507L443.536 298.988L444.478 294.452C448.317 294.452 451.684 293.357 454.504 291.167C457.325 288.977 459.127 286.083 459.911 282.408C460.538 279.358 460.38 276.698 459.442 274.43C458.501 272.162 456.856 270.755 454.504 270.207C452.859 269.894 451.449 270.207 450.116 270.989C448.786 271.849 447.61 273.101 446.592 274.587C445.573 276.073 444.32 278.262 442.91 281C440.95 284.676 439.148 287.569 437.58 289.759C436.016 291.949 434.056 293.669 431.627 294.921C429.198 296.172 426.378 296.485 423.088 295.781C418.777 294.843 415.721 292.731 413.765 289.446C411.805 286.162 411.336 281.86 412.509 276.698C413.215 273.414 414.234 270.833 415.644 268.878L415.721 268.721Z" fill="#601C1D"/>
<path d="M395.977 292.5C398.016 291.484 400.053 291.561 402.167 292.5C403.108 292.969 403.97 293.595 404.676 294.377C405.38 295.159 405.929 296.019 406.321 296.958L403.266 303.293L400.365 301.885C400.834 300.868 400.991 299.93 400.757 299.226C400.522 298.522 400.053 297.975 399.269 297.584C398.405 297.193 397.624 297.114 396.841 297.584C396.134 297.975 395.43 298.678 394.958 299.695C394.489 300.712 394.254 301.807 394.489 302.98C394.646 304.075 395.273 305.404 396.291 306.968C397.31 308.534 398.955 310.567 401.072 313.069L431.158 313.851C433.979 313.928 435.858 313.928 436.719 313.851C437.58 313.771 438.287 313.537 438.913 313.069C439.463 312.601 440.166 311.584 440.873 310.096L444.32 311.738L435.701 329.648L432.254 328.006C433.349 325.739 433.979 324.174 434.056 323.235C434.133 322.298 433.821 321.593 433.037 321.201C432.254 320.81 430.528 320.576 427.945 320.419L406.948 319.483L406.79 319.874L420.659 335.671C422.461 337.627 423.714 338.801 424.498 339.192C425.279 339.58 426.063 339.426 426.689 338.72C427.319 338.018 428.257 336.53 429.275 334.34L432.723 335.985L424.81 352.33L421.363 350.688C422.069 349.2 422.461 348.027 422.461 347.244C422.461 346.465 422.224 345.683 421.755 344.977C421.286 344.275 420.11 342.867 418.23 340.677L399.581 319.091C396.368 315.416 394.02 312.366 392.529 309.862C391.042 307.36 390.181 305.17 390.023 303.371C389.866 301.494 390.258 299.617 391.199 297.662C392.375 295.159 394.02 293.439 396.057 292.422L395.977 292.5Z" fill="#601C1D"/>
<path d="M380.855 346.702C382.422 345.839 384.144 345.137 385.947 344.666C387.123 344.355 387.749 344.04 387.984 343.806C388.298 343.415 388.141 342.947 387.515 342.479L385.32 340.756L387.906 337.473L397.779 345.294L395.112 348.655C393.782 348.03 392.215 347.796 390.412 347.873C388.61 347.873 386.808 348.421 385.086 349.203C383.283 350.063 381.793 351.236 380.463 352.878C378.975 354.677 378.269 356.476 378.191 358.118C378.191 359.76 378.818 361.091 380.148 362.185C381.247 363.047 382.5 363.438 383.833 363.281C385.163 363.124 386.416 362.656 387.672 361.951C388.925 361.248 390.57 360.075 392.607 358.59C395.112 356.711 397.149 355.383 398.874 354.366C400.6 353.427 402.399 352.878 404.358 352.801C406.318 352.721 408.278 353.427 410.157 354.992C412.82 357.102 414.154 359.76 414.154 362.89C414.154 366.017 412.978 369.147 410.469 372.273C408.981 374.153 407.494 375.48 406.084 376.263C404.673 377.045 403.105 377.671 401.461 378.139C401.069 378.296 400.754 378.376 400.442 378.453C400.127 378.53 399.893 378.687 399.816 378.844C399.501 379.235 399.735 379.704 400.362 380.175L402.087 381.583L399.501 384.867L389.551 376.968L392.215 373.604C394.801 374.855 397.307 375.169 399.816 374.544C402.322 373.995 404.439 372.588 406.161 370.397C407.571 368.598 408.355 366.879 408.512 365.157C408.67 363.438 408.04 362.108 406.787 361.091C405.3 359.917 403.732 359.76 401.93 360.466C400.127 361.168 397.856 362.656 395.035 364.766C392.449 366.642 390.335 368.05 388.533 368.99C386.731 370.006 384.771 370.474 382.734 370.632C380.62 370.712 378.583 370.006 376.624 368.364C373.96 366.254 372.55 363.593 372.55 360.466C372.55 357.336 373.726 354.209 376.155 351.079C377.719 349.046 379.287 347.638 380.855 346.779V346.702Z" fill="#601C1D"/>
<path d="M360.878 371.722C363.542 371.879 366.128 373.364 368.634 376.103L384.305 393.699L389.554 389.007L392.218 391.98C390.335 393.622 389.162 395.03 388.69 396.203C388.221 397.374 388.298 398.548 388.928 399.798C389.554 401.052 390.807 402.771 392.764 404.884L388.536 408.636L382.111 401.443L374.275 408.402L371.377 405.118L379.21 398.156L363.619 380.637C362.209 379.075 360.798 378.136 359.388 377.825C357.977 377.511 356.647 377.979 355.394 379.075C354.061 380.249 353.512 381.577 353.827 383.142C354.061 384.627 355.237 386.583 357.351 388.93L359.076 390.806L355.783 393.699L354.061 391.823C351.006 388.382 349.438 385.332 349.204 382.593C349.046 379.858 350.222 377.353 352.885 375.009C355.549 372.662 358.212 371.565 360.956 371.645L360.878 371.722Z" fill="#601C1D"/>
<path d="M336.588 390.264C339.958 390.264 343.09 391.044 346.068 392.766C349.046 394.485 351.552 397.066 353.589 400.507C355.626 403.948 356.725 407.389 356.959 410.91C357.116 414.428 356.41 417.635 354.845 420.607C353.197 423.58 350.849 426.005 347.636 427.881C344.501 429.757 341.368 430.619 338.233 430.619C335.1 430.619 332.122 429.68 329.459 427.881C326.715 426.082 324.444 423.58 322.565 420.373C322.015 419.514 321.7 418.808 321.466 418.34L346.929 403.246C344.658 399.57 341.917 397.3 338.705 396.441C335.492 395.504 332.28 396.049 328.91 398.006C326.323 399.49 324.679 401.447 323.818 403.637C322.957 405.904 322.722 407.937 323.111 409.893L318.645 412.552C318.019 410.596 317.861 408.405 318.099 406.061C318.334 403.714 319.195 401.369 320.682 399.099C322.173 396.832 324.209 394.876 326.95 393.234C330.085 391.358 333.375 390.418 336.668 390.341L336.588 390.264ZM329.536 418.651C331.261 421.547 333.533 423.5 336.43 424.517C339.331 425.533 342.229 425.142 345.05 423.5C347.713 421.938 349.438 419.668 350.142 416.618C350.926 413.645 350.534 410.442 348.966 407.155L329.536 418.731V418.651Z" fill="#601C1D"/>
<path d="M311.989 409.813C309.637 410.361 308.07 410.906 307.287 411.455C306.503 412.003 306.111 412.706 306.033 413.722C306.033 414.742 306.347 416.384 306.895 418.885L310.578 433.98C311.205 436.481 311.674 438.123 312.143 438.986C312.615 439.845 313.319 440.313 314.26 440.47C315.201 440.628 316.846 440.393 319.195 439.845L320.136 443.6L306.817 446.807L305.093 439.845C304.701 442.192 303.604 444.38 301.959 446.336C300.314 448.292 298.042 449.62 295.299 450.325C292.4 451.027 289.736 450.873 287.386 449.857C285.036 448.84 283.155 447.195 281.745 444.851C281.275 447.509 280.178 449.857 278.376 451.89C276.574 454 274.145 455.408 271.089 456.113C267.172 457.05 263.725 456.425 260.825 454.234C257.927 452.044 255.89 448.292 254.558 443.052L251.894 432.181C251.267 429.756 250.797 428.114 250.327 427.255C249.857 426.392 249.151 425.924 248.211 425.767C247.271 425.69 245.626 425.924 243.275 426.472L242.335 422.64L262.079 417.868L263.019 421.701C260.825 422.249 259.415 422.717 258.632 423.266C257.927 423.734 257.535 424.516 257.535 425.456C257.535 426.392 257.848 428.114 258.475 430.616L260.669 439.688C262.784 448.292 266.467 451.967 271.794 450.716C274.615 450.011 276.652 448.212 277.749 445.399C278.924 442.504 278.924 438.751 277.749 434.214L275.869 426.472C275.242 423.968 274.772 422.326 274.302 421.467C273.91 420.607 273.205 420.136 272.343 419.979C271.481 419.902 269.914 420.059 267.798 420.607L266.858 416.775L286.132 412.08L287.073 415.912C284.879 416.461 283.468 416.929 282.685 417.477C281.902 417.945 281.588 418.728 281.588 419.745C281.588 420.761 281.902 422.406 282.528 424.831L284.722 433.903C286.838 442.504 290.52 446.179 295.848 444.928C298.668 444.226 300.705 442.427 301.88 439.611C303.056 436.715 303.056 432.963 301.88 428.425L300 420.684C299.373 418.183 298.903 416.538 298.433 415.678C298.041 414.819 297.336 414.351 296.474 414.193C295.613 414.113 294.046 414.27 291.93 414.819L290.99 410.987L310.733 406.215L311.674 410.047L311.989 409.813Z" fill="#601C1D"/>
<path d="M231.992 421.149C234.813 422.948 236.928 425.453 238.417 428.503C239.905 431.629 240.532 435.15 240.297 439.14C240.062 443.126 239.043 446.647 237.242 449.62C235.44 452.669 233.011 454.937 230.033 456.501C227.056 458.063 223.687 458.769 219.926 458.535C216.322 458.301 213.189 457.284 210.603 455.485C208.017 453.686 206.059 451.261 204.883 448.289C203.63 445.316 203.16 441.955 203.316 438.2C203.316 437.183 203.473 436.401 203.552 435.933L233.167 437.652C233.324 433.351 232.306 429.91 230.19 427.406C228.075 424.827 225.019 423.497 221.258 423.263C218.281 423.105 215.852 423.731 213.893 425.139C211.935 426.546 210.603 428.111 209.741 429.91L204.57 429.596C205.197 427.643 206.215 425.687 207.782 423.888C209.349 422.089 211.386 420.681 213.815 419.587C216.322 418.491 219.143 418.023 222.355 418.257C226.038 418.491 229.25 419.507 232.07 421.306L231.992 421.149ZM210.211 440.701C210.054 444.065 210.838 446.958 212.64 449.382C214.442 451.807 217.028 453.138 220.318 453.372C223.374 453.529 226.116 452.589 228.388 450.556C230.66 448.523 232.149 445.63 232.697 442.032L210.133 440.701H210.211Z" fill="#601C1D"/>
<path d="M177.774 413.091C179.497 415.515 180.438 418.408 180.594 421.695C180.751 424.978 180.046 428.5 178.636 432.175C177.225 435.85 175.267 438.899 172.838 441.247C170.409 443.591 167.824 444.999 164.925 445.624C162.026 446.253 159.048 445.938 155.993 444.765C153.094 443.591 150.743 441.949 148.941 439.759C147.139 437.569 146.042 435.144 145.651 432.409L142.673 439.839C141.733 442.183 141.185 443.828 141.106 444.765C140.95 445.704 141.263 446.564 141.968 447.189C142.673 447.815 144.162 448.597 146.356 449.456L144.945 453.055L132.096 447.972L146.747 411.215C147.688 408.867 148.236 407.148 148.393 406.209C148.55 405.269 148.236 404.487 147.531 403.861C146.826 403.236 145.337 402.454 143.143 401.594L144.554 397.996L157.246 403.002L154.739 409.416C156.776 407.851 159.205 406.834 161.947 406.366C164.689 405.895 167.588 406.366 170.644 407.54C173.778 408.79 176.207 410.589 177.931 413.091H177.774ZM156.933 412.151C153.956 413.873 151.605 416.846 149.96 420.912C148.315 424.979 148.001 428.734 148.941 432.018C149.881 435.301 152.154 437.649 155.523 438.976C158.813 440.307 161.869 440.073 164.768 438.351C167.667 436.632 169.939 433.659 171.584 429.516C173.308 425.293 173.699 421.538 172.759 418.331C171.898 415.124 169.782 412.857 166.413 411.526C162.966 410.198 159.832 410.355 156.776 412.151H156.933Z" fill="#601C1D"/>
<path d="M135.153 392.916C136.564 395.889 137.112 399.173 136.799 402.537C136.407 405.978 135.075 409.262 132.803 412.546C130.531 415.833 127.789 418.257 124.733 419.899C121.599 421.541 118.387 422.243 115.018 422.009C111.649 421.775 108.436 420.601 105.381 418.491C102.403 416.458 100.288 413.953 99.0346 411.061C97.781 408.168 97.3891 405.118 97.9375 401.912C98.4859 398.705 99.7398 395.575 101.933 392.525C102.482 391.666 102.952 391.04 103.344 390.649L127.71 407.543C130.061 403.945 131.001 400.504 130.531 397.217C130.061 393.933 128.18 391.197 125.046 389.007C122.618 387.285 120.189 386.583 117.76 386.737C115.331 386.894 113.372 387.519 111.727 388.616L107.496 385.643C109.063 384.235 110.943 383.219 113.216 382.436C115.488 381.734 117.917 381.497 120.659 381.888C123.323 382.279 125.987 383.376 128.651 385.175C131.706 387.285 133.9 389.79 135.31 392.839L135.153 392.916ZM106.321 398.233C104.44 400.972 103.579 403.865 103.892 406.914C104.206 409.967 105.694 412.392 108.358 414.268C110.865 416.067 113.686 416.615 116.741 416.067C119.797 415.518 122.539 413.876 124.89 411.061L106.321 398.156V398.233Z" fill="#601C1D"/>
<path d="M108.516 376.805C106.87 375.083 105.617 373.99 104.755 373.518C103.893 373.05 103.031 373.127 102.169 373.518C101.308 373.91 99.9758 375.083 98.0955 376.805L86.7346 387.439C84.8543 389.161 83.6791 390.492 83.1307 391.271C82.5823 392.054 82.5823 392.916 82.8955 393.853C83.2875 394.712 84.3059 396.043 85.873 397.842L83.0523 400.424L73.7289 390.569L79.37 385.252C76.7061 386.269 74.1205 386.58 71.6134 386.112C69.1063 385.643 66.9123 384.312 64.9536 382.279C62.6816 379.855 61.6629 377.35 61.8981 374.772C62.1332 372.191 63.23 370 65.1888 368.124C66.4423 366.951 67.8527 366.091 69.4195 365.62C70.9866 365.075 72.397 365.075 73.8073 365.62L77.8029 369.843L75.3741 372.11C74.7473 371.408 73.8854 371.174 72.867 371.331C71.8486 371.485 70.9082 371.956 70.0463 372.739C69.0279 373.675 68.4795 374.772 68.4795 376.1C68.4795 377.35 69.0279 378.604 70.203 379.855C72.2402 382.045 74.9825 382.905 78.2732 382.279C81.5636 381.654 84.8543 379.932 88.0666 376.882L93.4728 371.799C95.3532 370.077 96.5283 368.75 96.9984 367.967C97.4687 367.185 97.4687 366.245 96.9984 365.229C96.45 364.212 95.2748 362.647 93.316 360.537L96.1367 357.878L111.336 374.067L108.516 376.725V376.805Z" fill="#601C1D"/>
<path d="M69.1053 319.714C69.1053 322.061 68.9486 324.485 68.4785 326.833C68.2437 328.395 68.1653 329.334 68.3218 329.648C68.5569 330.117 69.1837 330.117 70.2024 329.648L73.728 327.926L75.7651 332.15L60.5652 339.423L58.6068 335.276C60.4087 333.792 61.8191 331.835 62.8375 329.568C63.8559 327.301 64.4043 324.8 64.4043 322.218C64.4043 319.637 63.7778 317.055 62.6023 314.631C61.2704 311.895 59.6252 310.016 57.588 309.08C55.5509 308.14 53.4357 308.14 51.3202 309.234C49.5182 310.096 48.343 311.347 47.7162 313.066C47.0892 314.788 46.7759 316.587 46.8543 318.62C46.9327 320.653 47.2459 323.312 47.7943 326.595C48.4211 330.585 48.7347 333.792 48.813 336.216C48.8914 338.72 48.4211 341.065 47.4027 343.332C46.3843 345.602 44.5036 347.401 41.7616 348.729C37.8441 350.608 34.005 350.685 30.3226 348.886C26.6402 347.164 23.7412 343.96 21.5474 339.423C20.1372 336.53 19.4321 334.026 19.4321 331.835C19.4321 329.648 19.6671 327.535 20.1372 325.425C20.4506 324.171 20.529 323.312 20.3723 323C20.1372 322.529 19.4321 322.529 18.2568 323.155L15.3579 324.562L13.3208 320.339L28.6772 312.989L30.636 317.135C27.5804 319.479 25.5433 322.375 24.6814 325.816C23.7413 329.257 24.133 332.698 25.7783 336.059C27.1102 338.875 28.834 340.831 31.0279 342.081C33.2215 343.332 35.337 343.412 37.5306 342.396C39.0193 341.69 40.038 340.597 40.5081 339.032C41.0565 337.547 41.2132 335.825 41.1348 334.026C40.9781 332.227 40.6645 329.802 40.1161 326.676C39.4893 322.609 39.0977 319.168 38.9409 316.507C38.8626 313.848 39.3329 311.267 40.5081 308.765C41.6832 306.263 43.7204 304.307 46.7759 302.9C50.6934 301.023 54.4541 300.788 58.058 302.196C61.6623 303.604 64.5611 306.732 66.8334 311.504C68.2437 314.554 69.0269 317.212 69.1053 319.637V319.714Z" fill="#601C1D"/>
<path d="M54.3742 284.758C53.3558 287.964 51.6319 290.701 49.0464 292.891C46.4608 295.159 43.2485 296.723 39.3313 297.584C35.4138 298.444 31.8096 298.444 28.3623 297.584C24.915 296.723 22.0944 295.003 19.8223 292.578C17.4718 290.154 15.9048 287.104 15.1213 283.428C14.3378 279.909 14.4945 276.624 15.5131 273.652C16.5316 270.68 18.3336 268.177 20.9192 266.144C23.5047 264.111 26.5602 262.703 30.2427 261.921C31.2612 261.686 31.9664 261.53 32.5148 261.53L38.9394 290.388C43.092 289.372 46.1476 287.417 48.0279 284.679C49.9083 281.942 50.3783 278.657 49.5951 274.903C48.968 272.01 47.7147 269.82 45.756 268.334C43.8753 266.848 41.9949 265.987 40.0362 265.675L38.9394 260.591C41.0549 260.591 43.1704 261.139 45.2856 262.155C47.4795 263.172 49.3599 264.658 51.0835 266.77C52.8074 268.881 53.9826 271.462 54.6877 274.591C55.471 278.188 55.3929 281.551 54.3742 284.758ZM29.5376 269.194C26.2469 269.898 23.6614 271.54 21.8593 273.965C19.9789 276.389 19.4305 279.205 20.1356 282.411C20.8408 285.461 22.4078 287.729 25.0717 289.45C27.6572 291.092 30.7911 291.718 34.4735 291.249L29.5376 269.194Z" fill="#601C1D"/>
<path d="M47.8693 244.085C46.2241 246.978 43.8734 249.246 40.8963 250.888C37.9191 252.531 34.3933 253.391 30.3976 253.313C26.4018 253.313 22.876 252.531 19.7421 250.888C16.6081 249.246 14.1793 246.978 12.4556 244.085C10.7319 241.191 9.87007 237.906 9.87007 234.152C9.87007 230.554 10.7319 227.348 12.3772 224.689C14.0226 222.03 16.2947 219.996 19.272 218.588C22.1709 217.181 25.5399 216.477 29.3007 216.477C30.3192 216.477 31.1026 216.477 31.651 216.555V246.118C35.9604 246.039 39.3295 244.788 41.7582 242.52C44.187 240.252 45.4406 237.202 45.4406 233.37C45.4406 230.398 44.657 227.974 43.1686 226.097C41.6798 224.22 39.9563 222.968 38.154 222.264V217.103C40.1911 217.572 42.1499 218.51 44.0302 219.996C45.9106 221.404 47.4777 223.359 48.7313 225.784C49.9848 228.208 50.5332 231.024 50.5332 234.23C50.5332 237.906 49.6716 241.191 48.0261 244.085H47.8693ZM27.0286 223.516C23.6595 223.516 20.8389 224.532 18.4885 226.488C16.138 228.443 14.9628 231.102 14.9628 234.387C14.9628 237.437 16.0597 240.096 18.2534 242.285C20.4472 244.475 23.3461 245.727 27.0286 246.118V223.516Z" fill="#601C1D"/>
<path d="M46.5395 213.042C46.9311 210.696 47.0879 209.053 46.9311 208.037C46.7744 207.02 46.226 206.394 45.364 206.003C44.5024 205.612 42.7788 205.221 40.2714 204.83L12.5359 200.06C10.0287 199.59 8.30501 199.434 7.28648 199.512C6.34627 199.512 5.64116 200.06 5.17106 200.92C4.70098 201.78 4.23091 203.422 3.83916 205.769L0 205.065L2.3505 191.457L41.4465 198.182C43.8756 198.574 45.6776 198.808 46.6179 198.73C47.6363 198.73 48.3415 198.182 48.8115 197.4C49.2815 196.54 49.7518 194.976 50.1434 192.63L53.9826 193.334L50.457 213.824L46.6179 213.12L46.5395 213.042Z" fill="#601C1D"/>
<path d="M55.4722 181.83C52.9651 184.019 49.9879 185.349 46.6188 185.896C43.2497 186.444 39.6458 186.053 35.8851 184.723C32.1244 183.394 29.0686 181.439 26.6398 178.858C24.211 176.277 22.7224 173.383 22.0956 170.02C21.4688 166.735 21.7038 163.295 22.9574 159.775C24.211 156.334 26.0131 153.675 28.4419 151.72C30.8708 149.765 33.7696 148.591 36.9819 148.2C40.1942 147.888 43.5633 148.278 47.0888 149.53C48.0292 149.843 48.7343 150.155 49.2827 150.39L39.3326 178.232C43.4065 179.562 47.0108 179.562 50.0663 178.232C53.1218 176.902 55.3157 174.4 56.5693 170.802C57.5877 167.987 57.6661 165.484 56.8825 163.216C56.099 160.948 54.9238 159.228 53.4351 157.898L55.159 153.049C56.8825 154.144 58.4497 155.708 59.7032 157.742C61.0352 159.697 61.8184 162.043 62.132 164.78C62.4452 167.439 62.132 170.333 61.0352 173.305C59.7816 176.746 57.9013 179.562 55.3938 181.752L55.4722 181.83ZM42.7797 155.552C39.6458 154.457 36.5903 154.379 33.7696 155.474C30.8708 156.568 28.912 158.602 27.8151 161.73C26.7965 164.624 26.9532 167.518 28.2851 170.255C29.6171 173.07 31.9676 175.26 35.2583 176.824L42.8581 155.552H42.7797Z" fill="#601C1D"/>
<path d="M68.8702 152.271C67.695 152.662 66.4414 152.506 65.2662 151.88C64.0911 151.255 63.2291 150.316 62.9159 149.065C62.5239 147.892 62.6807 146.64 63.3859 145.389C64.0127 144.138 64.9527 143.356 66.1279 143.043C67.3034 142.652 68.5569 142.808 69.7321 143.434C70.9857 144.06 71.7693 144.998 72.0825 146.171C72.4744 147.344 72.3177 148.596 71.6909 149.769C71.0641 151.02 70.1237 151.802 68.9486 152.193L68.8702 152.271Z" fill="#601C1D"/>
</g>
<defs>
<clipPath id="clip0_6080_143">
<rect width="466" height="459" fill="white"/>
</clipPath>
</defs>
</svg>
