<svg width="449" height="472" viewBox="0 0 449 472" fill="none" xmlns="http://www.w3.org/2000/svg">
<g clip-path="url(#clip0_6080_122)">
<path d="M56.1161 71.4644C54.9317 70.946 53.7471 70.7978 52.5627 71.0939C51.3783 71.3903 49.7495 72.3531 47.6026 73.8341L44.5672 69.5389L65.2219 54.8754L68.2574 59.1706C66.1844 60.6518 64.8518 61.7628 64.2595 62.6515C63.6674 63.4661 63.6674 64.3548 64.2595 65.1693C64.9259 66.058 66.7026 67.5392 69.7381 69.4648L105.717 94.2001L100.609 66.2803L86.395 57.4674C83.5077 55.69 81.509 54.579 80.3984 54.0608C79.214 53.5424 78.1034 53.4683 77.0672 53.6903C76.0307 53.9126 74.55 54.7272 72.6992 56.0602L69.664 51.765L105.051 26.5851L108.086 30.8806C106.235 32.2136 105.051 33.3246 104.459 34.1391C103.866 35.0278 103.644 36.0647 103.718 37.3236C103.792 38.5825 104.162 40.8783 104.755 44.211L107.716 59.7632L132.59 74.9451L121.042 33.0282C120.005 29.4734 119.265 27.2517 118.673 26.5113C118.08 25.6964 117.34 25.4003 116.378 25.6226C115.415 25.8446 114.009 26.6592 112.084 28.0663L109.049 23.771L127.704 10.5146L130.74 14.81C128.667 16.2912 127.26 17.4761 126.594 18.5129C125.928 19.4757 125.632 20.6606 125.78 21.9196C125.928 23.2526 126.446 25.4744 127.334 28.5848L141.696 81.3881L135.034 86.1279L108.308 69.835L113.861 101.088L107.198 105.827L61.8907 75.0192C59.2254 73.1677 57.3008 71.9088 56.1161 71.3903V71.4644ZM97.4997 41.8411C96.9074 41.0265 96.1672 40.7304 95.2048 40.8783C94.2423 41.0265 92.9838 41.6191 91.355 42.8039C89.7264 43.989 88.6899 44.9515 88.0976 45.7663C87.5796 46.5809 87.5796 47.3955 88.0976 48.2101C88.468 48.8026 89.2823 49.3951 90.4667 50.1356L100.831 56.5787L98.4622 44.5072C98.2399 43.3964 97.9439 42.5077 97.4257 41.8411H97.4997Z" fill="#601C1D"/>
<path d="M167.608 65.6181C170.569 64.8777 172.568 64.1369 173.605 63.3965C174.641 62.7298 175.159 61.6932 175.159 60.434C175.159 59.1751 174.715 56.9534 173.901 53.843L168.867 34.4398C168.052 31.2553 167.312 29.1077 166.72 27.9967C166.127 26.8857 165.165 26.2934 163.981 26.1452C162.796 25.9971 160.649 26.2934 157.614 27.108L156.355 22.2943L173.605 17.8508L182.34 51.6213C183.155 54.7317 183.821 56.8793 184.487 57.9903C185.079 59.101 186.042 59.6935 187.226 59.8417C188.485 59.9156 190.558 59.6194 193.519 58.8049L194.777 63.6926L168.793 70.4318L167.534 65.5441L167.608 65.6181ZM161.982 11.704C160.575 10.8893 159.613 9.5563 159.168 7.85296C158.724 6.07558 158.872 4.44629 159.761 3.0392C160.575 1.63209 161.908 0.669344 163.684 0.224996C165.387 -0.219352 167.016 0.00282158 168.422 0.817458C169.829 1.63209 170.791 2.96515 171.236 4.74253C171.68 6.44587 171.458 8.07513 170.643 9.48223C169.829 10.8893 168.497 11.8521 166.794 12.2964C165.017 12.7408 163.388 12.5927 161.982 11.704Z" fill="#601C1D"/>
<path d="M212.618 61.7705C210.471 60.9559 208.324 59.919 206.325 58.5119C205.067 57.6973 204.179 57.253 203.808 57.253C203.142 57.253 202.772 57.8453 202.846 58.808L202.994 62.4369L197.664 62.6592L196.924 46.4404L202.476 46.2183C203.068 48.0698 204.104 49.7731 205.659 51.4763C207.214 53.1798 209.213 54.5128 211.508 55.5495C213.803 56.5863 216.32 57.0307 218.985 56.9566C222.02 56.8086 224.315 56.0679 225.944 54.7349C227.572 53.4019 228.313 51.6245 228.239 49.4028C228.165 47.5514 227.498 46.0701 226.24 44.8853C224.981 43.7743 223.501 42.8857 221.724 42.2931C219.947 41.7008 217.43 41.0342 214.247 40.2937C210.397 39.405 207.214 38.5902 204.845 37.7015C202.476 36.8128 200.403 35.4798 198.7 33.6284C196.998 31.7769 196.035 29.2591 195.887 26.1487C195.665 21.7792 197.146 18.2244 200.181 15.5583C203.29 12.8922 207.362 11.411 212.396 11.1889C215.505 11.0408 218.022 11.337 220.021 12.0776C222.02 12.8182 223.945 13.7809 225.796 15.0399C226.24 15.2621 226.61 15.5583 226.98 15.7805C227.35 16.0026 227.647 16.0767 227.869 16.0767C228.461 16.0767 228.757 15.4843 228.683 14.3734L228.535 11.4851L233.865 11.263L234.605 27.6297L229.053 27.8519C228.091 24.2971 226.24 21.557 223.575 19.6315C220.91 17.706 217.8 16.8173 214.099 16.9654C211.138 17.1135 208.769 17.78 207.066 19.1131C205.289 20.4461 204.475 22.1495 204.549 24.2971C204.623 26.6669 205.807 28.4445 208.028 29.5552C210.249 30.6662 213.58 31.7028 218.022 32.6656C221.946 33.6284 225.203 34.517 227.647 35.4057C230.089 36.2944 232.31 37.7756 234.087 39.7012C235.938 41.6267 236.9 44.2928 237.048 47.5513C237.271 51.9206 235.864 55.4756 232.829 58.2158C229.793 60.9559 225.722 62.363 220.613 62.5851C217.356 62.7333 214.617 62.4369 212.47 61.6223L212.618 61.7705Z" fill="#601C1D"/>
<path d="M257.333 64.2856C255.41 62.9526 253.705 61.3975 252.077 59.5461C251.041 58.4351 250.375 57.7687 249.93 57.6946C249.264 57.5464 248.82 57.9907 248.598 58.9535L247.858 62.5082L242.601 61.3975L246.081 45.4749L251.485 46.66C251.485 48.5855 252.152 50.5108 253.262 52.5846C254.372 54.584 255.927 56.4354 257.853 57.9907C259.852 59.5461 262.145 60.6568 264.738 61.2493C267.698 61.9157 270.141 61.7678 272.066 60.8791C273.991 59.9904 275.176 58.5092 275.62 56.3616C275.99 54.584 275.767 52.9548 274.806 51.4736C273.918 50.0665 272.657 48.8076 271.105 47.8448C269.55 46.8079 267.328 45.549 264.441 43.9939C260.887 42.1425 258.074 40.513 256.001 39.1059C253.929 37.6988 252.299 35.8473 251.115 33.6256C249.93 31.404 249.634 28.7379 250.301 25.6275C251.263 21.3321 253.558 18.2957 257.186 16.5183C260.813 14.7409 265.181 14.3706 270.141 15.4074C273.177 16.074 275.546 17.0367 277.249 18.2217C278.951 19.4066 280.579 20.8877 282.061 22.517C282.431 22.8873 282.725 23.1835 283.022 23.5538C283.319 23.85 283.616 24.0722 283.836 24.0722C284.43 24.2203 284.874 23.702 285.095 22.6651L285.688 19.8509L290.944 20.9618L287.464 36.9583L282.061 35.7735C282.061 32.1444 280.95 29.0341 278.877 26.4421C276.805 23.85 273.991 22.2208 270.438 21.4062C267.551 20.8137 265.108 20.8877 263.033 21.7024C260.96 22.517 259.776 23.9982 259.332 26.0719C258.814 28.4418 259.481 30.4412 261.331 32.0706C263.182 33.6997 266.143 35.5512 270.214 37.6247C273.768 39.5503 276.655 41.2538 278.804 42.7347C280.95 44.2901 282.652 46.2156 283.986 48.5114C285.244 50.8813 285.539 53.6214 284.874 56.8798C283.91 61.1752 281.69 64.2115 278.063 66.063C274.435 67.9144 270.141 68.2849 265.108 67.1739C261.924 66.5073 259.332 65.4707 257.482 64.1377L257.333 64.2856Z" fill="#601C1D"/>
<path d="M297.235 74.8024C294.94 71.1736 293.755 67.1746 293.682 62.7312C293.682 58.2875 294.793 53.8441 297.235 49.2525C299.678 44.735 302.712 41.1803 306.489 38.5881C310.191 35.9962 314.262 34.6631 318.63 34.4411C322.998 34.2188 327.291 35.2557 331.512 37.4774C335.657 39.6991 338.693 42.5133 340.766 45.9939C342.838 49.4748 343.8 53.3257 343.579 57.547C343.432 61.7684 342.171 65.9156 339.951 70.2108C339.358 71.3959 338.84 72.2105 338.47 72.803L304.787 54.881C302.268 59.8428 301.604 64.4344 302.788 68.5817C303.897 72.7289 306.637 75.9875 311.005 78.2833C314.409 80.0607 317.593 80.7273 320.629 80.0607C323.663 79.4681 326.106 78.3574 328.031 76.728L333.955 79.8386C332.179 81.838 329.883 83.4674 327.143 84.8005C324.33 86.0594 321.22 86.6519 317.742 86.5778C314.262 86.5037 310.708 85.4668 307.08 83.5413C302.935 81.3196 299.678 78.3574 297.383 74.7286L297.235 74.8024ZM333.287 63.5457C335.286 59.6946 335.953 55.9179 335.066 52.0668C334.251 48.2156 331.956 45.2535 328.181 43.2538C324.701 41.4023 320.999 41.0321 317.222 42.2172C313.448 43.402 310.19 45.9198 307.524 49.9192L333.214 63.6198L333.287 63.5457Z" fill="#601C1D"/>
<path d="M333.658 90.2035C335.806 92.4252 337.435 93.8323 338.543 94.3508C339.655 94.9433 340.766 94.8692 341.877 94.2026C342.985 93.5362 344.69 92.1291 347.057 89.9074L361.493 75.9844C363.862 73.6886 365.344 72.0592 366.011 70.9485C366.676 69.9116 366.749 68.8009 366.232 67.6158C365.714 66.431 364.456 64.8016 362.307 62.5799L365.861 59.1733L378.078 71.8372L371.044 78.5763C374.524 77.6136 378.002 77.4656 381.409 78.132C384.813 78.8727 387.997 80.7242 390.884 83.7605C394.734 87.7595 396.363 92.1291 395.769 96.7948C395.178 101.46 392.365 106.274 387.256 111.162L377.041 121.012C374.745 123.233 373.19 124.937 372.525 125.974C371.858 127.084 371.785 128.121 372.302 129.306C372.82 130.417 374.154 132.12 376.3 134.342L372.672 137.823L354.388 118.79L358.015 115.309C360.014 117.383 361.569 118.716 362.604 119.234C363.715 119.753 364.75 119.679 365.861 119.012C366.972 118.345 368.675 116.939 370.97 114.643L379.631 106.274C387.923 98.3498 389.478 91.7588 384.443 86.5006C382.594 84.5751 380.371 83.242 377.781 82.6495C375.189 81.9831 372.376 82.1313 369.415 83.1679C366.379 84.1307 363.419 86.0563 360.458 88.9446L353.053 96.054C350.684 98.3498 349.132 99.9793 348.465 101.016C347.797 102.053 347.65 103.09 348.168 104.2C348.612 105.311 349.87 106.867 351.945 109.014L348.317 112.495L330.104 93.4621L333.731 89.9812L333.658 90.2035Z" fill="#601C1D"/>
<path d="M386.444 161.004C387.85 157.376 390.589 154.857 394.661 153.524C397.697 152.488 400.361 152.562 402.657 153.599C404.952 154.635 406.802 156.265 408.357 158.338C409.838 160.412 411.614 163.3 413.539 166.929C415.168 169.891 416.573 172.261 417.684 173.965C418.795 175.668 420.127 176.927 421.682 177.815C423.237 178.704 425.013 178.778 426.938 178.112C429.825 177.149 431.603 175.372 432.194 172.78C432.788 170.188 432.638 167.225 431.603 163.967C430.566 160.856 429.16 158.338 427.309 156.561C425.459 154.783 423.681 154.117 422.052 154.635C420.35 155.154 419.906 156.709 420.794 159.301L416.723 160.634L413.095 149.674C414.501 148.785 415.835 148.118 417.24 147.674C421.682 146.193 425.753 147.007 429.604 149.97C433.379 152.932 436.192 157.301 438.117 162.93C439.893 168.336 440.19 173.224 438.932 177.593C437.674 181.963 434.416 184.999 429.16 186.703L409.244 193.22C406.284 194.182 404.285 195.071 403.174 195.96C402.063 196.774 401.693 197.811 402.063 198.996C402.433 200.255 403.544 200.773 405.323 200.699C407.098 200.551 409.765 199.885 413.316 198.552L414.944 203.514C414.28 203.81 413.242 204.18 411.837 204.625C407.469 206.032 403.915 206.402 401.249 205.587C398.585 204.773 396.733 202.847 395.698 199.589C394.808 196.774 394.808 194.404 395.846 192.479C396.883 190.553 398.659 188.85 401.102 187.443C398.065 186.703 395.254 185.221 392.736 183C390.219 180.778 388.294 177.593 386.962 173.594C385.407 168.855 385.333 164.633 386.815 161.004H386.444ZM401.102 182.629C404.729 184.11 408.727 184.184 413.022 182.777L418.202 181.074C416.649 180.334 415.315 179.223 414.206 177.667C413.095 176.112 411.687 174.038 410.208 171.372C408.801 168.929 407.616 167.003 406.581 165.596C405.543 164.189 404.285 163.152 402.877 162.486C401.472 161.819 399.77 161.745 397.918 162.411C395.549 163.152 394.07 164.633 393.329 166.855C392.662 169.002 392.735 171.521 393.623 174.261C394.958 178.334 397.474 181.148 401.102 182.703V182.629Z" fill="#601C1D"/>
<path d="M403.694 218.032C407.322 215.07 412.725 213.589 419.759 213.515H433.972C437.23 213.441 439.525 213.292 440.71 212.996C441.895 212.7 442.709 211.959 443.153 210.775C443.597 209.59 443.818 207.442 443.818 204.332H448.779L448.853 222.105L421.979 222.254C410.579 222.254 404.952 225.808 404.952 232.844C404.952 235.14 405.693 237.435 407.025 239.509C408.433 241.657 410.505 243.36 413.392 244.619C416.279 245.878 419.759 246.545 423.831 246.545H434.12C437.377 246.545 439.672 246.322 440.857 246.026C442.042 245.73 442.856 244.989 443.3 243.879C443.744 242.693 443.967 240.546 443.967 237.51H448.926L449 255.21L414.133 255.357C410.876 255.357 408.653 255.507 407.469 255.875C406.211 256.172 405.396 256.913 405.026 258.098C404.656 259.283 404.435 261.43 404.435 264.467H399.399L399.326 246.989H409.097C405.84 245.286 403.25 243.138 401.325 240.324C399.399 237.51 398.365 234.251 398.365 230.326C398.365 225.142 400.14 220.995 403.841 218.032H403.694Z" fill="#601C1D"/>
<path d="M393.552 281.723C395.034 279.947 396.736 278.317 398.661 276.835C399.846 275.947 400.511 275.28 400.66 274.836C400.881 274.168 400.437 273.724 399.476 273.427L395.995 272.392L397.55 267.281L413.098 272.022L411.469 277.353C409.544 277.28 407.545 277.724 405.396 278.612C403.25 279.576 401.325 280.908 399.623 282.761C397.921 284.611 396.662 286.834 395.848 289.351C394.96 292.239 394.884 294.683 395.625 296.682C396.366 298.682 397.773 299.941 399.846 300.608C401.622 301.126 403.25 300.978 404.732 300.238C406.211 299.423 407.545 298.311 408.656 296.832C409.764 295.35 411.246 293.201 413.022 290.463C415.097 287.054 416.946 284.39 418.575 282.464C420.203 280.538 422.128 279.056 424.424 278.021C426.717 276.983 429.384 276.983 432.42 277.871C436.639 279.132 439.452 281.649 441.007 285.499C442.488 289.277 442.562 293.647 441.007 298.461C440.119 301.423 439.008 303.719 437.6 305.348C436.268 306.977 434.713 308.457 432.937 309.792C432.567 310.086 432.197 310.383 431.826 310.68C431.456 310.977 431.309 311.198 431.235 311.421C431.086 312.012 431.456 312.456 432.567 312.753L435.307 313.568L433.752 318.678L418.057 313.938L419.686 308.607C423.313 308.827 426.497 308.013 429.236 306.163C431.974 304.31 433.825 301.643 434.863 298.164C435.751 295.35 435.824 292.906 435.157 290.757C434.492 288.61 433.158 287.278 431.159 286.684C428.866 286.019 426.794 286.537 425.015 288.24C423.24 289.942 421.167 292.757 418.798 296.609C416.649 300.014 414.65 302.755 412.948 304.828C411.246 306.828 409.173 308.457 406.731 309.495C404.288 310.606 401.474 310.68 398.364 309.716C394.146 308.457 391.257 305.94 389.702 302.237C388.149 298.535 388.149 294.165 389.628 289.277C390.592 286.093 391.777 283.649 393.255 281.87L393.552 281.723Z" fill="#601C1D"/>
<path d="M369.045 338.074C373.043 336.521 377.261 336.15 381.556 336.965C385.851 337.78 390.069 339.779 394.067 343.037C398.065 346.296 400.952 349.998 402.728 354.145C404.506 358.294 405.097 362.514 404.506 366.81C403.912 371.104 402.063 375.103 399.027 378.882C396.066 382.51 392.659 384.954 388.885 386.36C385.11 387.768 381.112 387.916 377.041 386.954C372.969 385.989 369.045 383.99 365.344 380.955C364.306 380.14 363.566 379.473 363.122 379.029L387.183 349.407C382.814 345.999 378.446 344.443 374.151 344.814C369.859 345.111 366.158 347.184 363.048 351.036C360.605 353.998 359.421 357.033 359.421 360.144C359.421 363.255 360.012 365.846 361.27 368.069L357.051 373.253C355.423 371.104 354.238 368.586 353.497 365.625C352.757 362.661 352.757 359.479 353.497 356.071C354.238 352.665 355.94 349.331 358.533 346.146C361.493 342.444 365.047 339.853 369.045 338.297V338.074ZM373.19 375.547C376.521 378.288 380.224 379.623 384.146 379.546C388.07 379.546 391.401 377.77 394.067 374.512C396.584 371.401 397.621 367.919 397.251 363.922C396.88 359.997 394.955 356.294 391.624 352.96L373.264 375.547H373.19Z" fill="#601C1D"/>
<path d="M346.024 370.221C343.505 372 341.877 373.332 341.136 374.367C340.398 375.405 340.248 376.443 340.692 377.626C341.136 378.811 342.321 380.737 344.099 383.404L355.572 399.919C357.424 402.659 358.83 404.362 359.794 405.177C360.755 405.991 361.793 406.212 363.051 405.918C364.235 405.621 366.161 404.583 368.677 402.806L371.49 406.879L357.128 416.878L351.427 408.658C352.242 412.287 352.168 415.619 351.057 418.654C349.946 421.765 347.947 424.356 344.913 426.432C341.433 428.876 338.029 429.69 334.771 428.876C331.514 428.061 328.922 426.282 326.923 423.468C325.665 421.692 324.85 419.692 324.48 417.619C324.11 415.545 324.406 413.693 325.294 412.064L331.438 407.768L333.881 411.323C332.846 412.064 332.402 413.026 332.402 414.434C332.402 415.84 332.846 417.098 333.66 418.284C334.695 419.765 336.03 420.654 337.585 420.951C339.213 421.247 340.915 420.727 342.691 419.545C345.875 417.322 347.43 414.063 347.282 409.694C347.133 405.324 345.504 400.88 342.247 396.29L336.77 388.438C334.918 385.7 333.437 383.995 332.476 383.18C331.514 382.366 330.33 382.219 328.922 382.663C327.516 383.107 325.294 384.439 322.26 386.515L319.371 382.366L342.841 366.074L345.727 370.221H346.024Z" fill="#601C1D"/>
<path d="M288.352 398.736C290.645 398.883 293.014 399.254 295.31 399.995C296.789 400.439 297.679 400.586 298.05 400.439C298.714 400.215 298.864 399.624 298.494 398.662L297.309 395.254L302.342 393.478L307.821 408.808L302.565 410.658C301.454 409.102 299.973 407.696 297.974 406.585C295.975 405.473 293.682 404.735 291.165 404.438C288.646 404.141 286.13 404.438 283.613 405.326C280.8 406.364 278.801 407.696 277.616 409.473C276.432 411.252 276.209 413.178 276.949 415.251C277.543 417.027 278.651 418.212 280.206 418.953C281.761 419.694 283.464 420.065 285.315 420.065C287.167 420.065 289.757 420.065 293.014 419.768C297.012 419.471 300.196 419.324 302.712 419.471C305.229 419.621 307.598 420.286 309.82 421.544C312.04 422.803 313.668 424.952 314.706 427.914C316.187 432.06 315.817 435.839 313.668 439.318C311.522 442.799 308.042 445.393 303.23 447.096C300.343 448.131 297.827 448.575 295.68 448.428C293.532 448.281 291.459 447.91 289.313 447.316C288.869 447.169 288.352 447.096 287.905 447.022C287.461 446.946 287.167 446.872 286.944 447.022C286.353 447.243 286.277 447.837 286.647 448.872L287.611 451.613L282.576 453.389L277.099 437.986L282.355 436.136C284.354 439.244 286.87 441.317 289.98 442.355C293.088 443.467 296.345 443.393 299.825 442.132C302.639 441.17 304.638 439.764 305.969 437.986C307.304 436.209 307.598 434.357 306.857 432.284C306.043 429.987 304.414 428.655 301.972 428.284C299.529 427.84 296.051 427.84 291.533 428.284C287.461 428.581 284.131 428.655 281.465 428.431C278.801 428.284 276.358 427.543 273.989 426.211C271.693 424.879 269.918 422.656 268.88 419.545C267.399 415.398 267.695 411.622 269.768 408.14C271.843 404.659 275.321 402.068 280.133 400.365C283.243 399.254 285.906 398.81 288.276 398.883L288.352 398.736Z" fill="#601C1D"/>
<path d="M249.706 411.396C252.445 413.543 254 417.025 254.517 421.839L257.701 452.054L266.734 451.09L267.251 456.201C264.068 456.571 261.772 457.163 260.44 458.051C259.108 458.941 258.294 460.2 257.997 461.976C257.701 463.755 257.774 466.493 258.221 470.272L250.964 471.013L249.632 458.645L236.232 460.05L235.64 454.422L249.039 453.016L245.856 422.948C245.56 420.21 244.746 418.21 243.487 416.801C242.229 415.469 240.526 414.875 238.379 415.099C236.158 415.319 234.529 416.357 233.715 418.134C232.827 419.913 232.605 422.8 233.049 426.873L233.419 430.132L227.793 430.725L227.422 427.467C226.83 421.615 227.422 417.172 229.273 414.211C231.124 411.247 234.307 409.47 238.823 409.026C243.413 408.506 247.041 409.397 249.78 411.543L249.706 411.396Z" fill="#601C1D"/>
<path d="M211.212 412.064C214.617 414.731 217.06 418.136 218.615 422.285C220.17 426.432 220.54 431.022 219.799 436.133C219.059 441.244 217.356 445.611 214.691 449.243C212.026 452.945 208.695 455.61 204.697 457.239C200.699 458.868 196.257 459.388 191.52 458.721C186.93 458.053 183.006 456.424 179.897 453.833C176.787 451.24 174.566 447.908 173.308 443.909C172.049 439.909 171.753 435.539 172.493 430.802C172.716 429.543 172.863 428.505 173.012 427.838L210.768 433.319C211.434 427.764 210.545 423.247 208.102 419.766C205.66 416.286 201.958 414.137 197.072 413.399C193.296 412.878 190.039 413.399 187.374 414.952C184.708 416.507 182.784 418.433 181.525 420.58L174.937 419.618C175.899 417.101 177.528 414.804 179.674 412.658C181.821 410.508 184.635 408.879 187.892 407.77C191.223 406.659 194.925 406.362 198.997 407.029C203.661 407.694 207.732 409.399 211.138 411.99L211.212 412.064ZM181.081 434.801C180.489 439.095 181.155 442.873 183.228 446.279C185.301 449.611 188.41 451.61 192.63 452.204C196.554 452.795 200.107 451.907 203.29 449.463C206.474 447.093 208.695 443.614 209.805 438.948L181.007 434.725L181.081 434.801Z" fill="#601C1D"/>
<path d="M171.755 408.732C168.941 407.473 166.943 406.732 165.684 406.659C164.426 406.582 163.463 407.027 162.649 407.991C161.835 408.953 160.798 410.952 159.466 413.916L151.174 432.208C149.841 435.243 149.027 437.318 148.805 438.503C148.583 439.688 148.953 440.797 149.767 441.686C150.656 442.576 152.507 443.685 155.32 444.946L153.247 449.463L137.33 442.206L141.476 433.096C138.811 435.613 135.849 437.242 132.666 437.91C129.483 438.577 126.152 438.133 122.82 436.577C118.97 434.798 116.527 432.355 115.491 429.096C114.528 425.912 114.75 422.727 116.157 419.618C117.045 417.619 118.304 415.916 119.933 414.581C121.562 413.175 123.264 412.508 125.115 412.434L131.926 415.545L130.149 419.469C129.039 418.951 127.854 419.024 126.744 419.765C125.633 420.506 124.745 421.468 124.078 422.803C123.338 424.432 123.264 425.988 123.856 427.541C124.449 429.096 125.707 430.281 127.706 431.246C131.259 432.875 134.887 432.504 138.515 430.208C142.142 427.911 145.177 424.135 147.472 419.024L151.47 410.287C152.803 407.323 153.617 405.177 153.765 403.918C153.987 402.659 153.469 401.621 152.358 400.66C151.248 399.695 149.027 398.437 145.622 396.881L147.695 392.291L173.754 404.139L171.681 408.732H171.755Z" fill="#601C1D"/>
<path d="M108.974 377.404C106.901 374.887 105.347 373.332 104.236 372.591C103.126 371.85 101.941 371.776 100.831 372.294C99.6463 372.814 97.8696 374.146 95.3524 376.219L67.6648 398.957C65.1476 401.03 63.519 402.509 62.7786 403.547C62.0384 404.585 61.8902 405.694 62.4085 406.953C62.9267 408.214 64.1852 410.064 66.1841 412.581L62.1124 415.916L44.0487 393.993L48.1204 390.661C50.1934 393.178 51.7479 394.734 52.8585 395.401C53.969 396.066 55.0794 396.216 56.1899 395.622C57.3003 395.104 59.1511 393.772 61.6683 391.699L73.2172 382.218L51.822 356.225L40.2733 365.703C37.7561 367.777 36.1275 369.259 35.387 370.294C34.6468 371.332 34.4987 372.443 35.0169 373.702C35.5352 374.961 36.7937 376.813 38.7926 379.33L34.7209 382.662L16.6572 360.742L20.7289 357.408C22.8018 359.928 24.3564 361.483 25.4669 362.148C26.5773 362.816 27.6878 362.889 28.7984 362.371C29.9087 361.851 31.7595 360.519 34.2767 358.446L61.9643 335.711C64.4815 333.635 66.1101 332.082 66.8505 331.044C67.5907 330.006 67.7389 328.971 67.2206 327.712C66.7765 326.527 65.5177 324.675 63.445 322.158L67.5167 318.826L85.5804 340.746L81.5087 344.078C79.4357 341.56 77.881 340.005 76.7706 339.264C75.6601 338.525 74.4757 338.449 73.3651 338.969C72.1807 339.487 70.404 340.819 67.8868 342.893L56.6341 352.15L78.0291 378.145L89.282 368.888C91.7989 366.815 93.5016 365.259 94.168 364.221C94.9082 363.186 95.0564 362.148 94.5381 360.89C94.0939 359.704 92.8354 357.855 90.7624 355.335L94.8341 352.003L112.898 373.923L108.826 377.257L108.974 377.404Z" fill="#601C1D"/>
<path d="M64.0358 311.786C62.6292 315.415 59.89 317.933 55.8924 319.265C52.8569 320.303 50.1919 320.303 47.8969 319.265C45.6019 318.229 43.7511 316.674 42.1964 314.527C40.6419 312.454 38.9392 309.563 37.0143 305.935C35.3855 302.973 33.9789 300.603 32.7945 298.9C31.6839 297.198 30.2773 295.939 28.7228 295.124C27.1681 294.234 25.3913 294.16 23.4666 294.827C20.5793 295.789 18.8766 297.568 18.2103 300.233C17.5441 302.9 17.7661 305.787 18.8766 309.046C19.9131 312.157 21.3937 314.601 23.2445 316.453C25.0952 318.229 26.872 318.897 28.5006 318.303C30.2035 317.712 30.6477 316.156 29.7593 313.639L33.831 312.304L37.4585 323.264C36.126 324.155 34.7194 324.82 33.3868 325.264C28.9448 326.746 24.8732 326.005 21.0235 323.043C17.2479 320.082 14.3607 315.786 12.4359 310.084C10.6591 304.676 10.363 299.788 11.5475 295.419C12.732 291.049 15.9894 288.014 21.3196 286.235L41.2342 279.571C44.1953 278.609 46.1942 277.645 47.3046 276.83C48.4151 276.016 48.7852 274.981 48.4151 273.795C47.971 272.534 46.9345 272.017 45.1577 272.09C43.381 272.166 40.7159 272.905 37.2363 274.24L35.6077 269.276C36.2739 268.982 37.3104 268.611 38.717 268.167C43.085 266.685 46.5643 266.388 49.3035 267.129C51.9686 267.87 53.8194 269.87 54.93 273.054C55.8924 275.869 55.8183 278.239 54.8559 280.162C53.8194 282.162 52.1167 283.791 49.5995 285.2C52.635 285.941 55.4482 287.346 58.0392 289.569C60.5562 291.79 62.5551 294.901 63.8876 298.974C65.4424 303.714 65.5903 307.934 64.1098 311.563L64.0358 311.786ZM49.2294 290.234C45.6019 288.755 41.6043 288.681 37.3104 290.161L32.1281 291.863C33.6829 292.604 35.0154 293.716 36.2001 295.198C37.3845 296.677 38.717 298.827 40.2718 301.491C41.6784 303.935 42.8628 305.861 43.8993 307.196C44.9358 308.602 46.1942 309.64 47.6009 310.304C49.0075 310.972 50.7101 311.045 52.5609 310.378C54.93 309.563 56.4104 308.084 57.0768 305.935C57.7432 303.788 57.6691 301.27 56.7067 298.53C55.3001 294.457 52.8569 291.643 49.1554 290.161L49.2294 290.234Z" fill="#601C1D"/>
<path d="M45.6017 264.688C45.6017 261.577 45.4535 259.503 45.0093 258.318C44.6392 257.133 43.7509 256.392 42.5665 256.095C41.3077 255.801 39.0868 255.578 35.9035 255.578L15.8411 255.431C12.5837 255.431 10.2887 255.578 9.10425 255.875C7.91972 256.169 7.10538 256.91 6.58716 258.095C6.14298 259.28 5.92089 261.353 5.84686 264.465H0.960786L1.03482 246.839H10.8069C7.62361 245.136 5.0325 242.84 3.10769 239.952C1.18288 237.063 0.220474 233.508 0.220474 229.361C0.220474 223.807 2.14529 219.512 5.77282 216.549C9.47438 213.587 14.8046 212.106 21.9117 212.18H36.1257C39.3831 212.254 41.604 212.18 42.7884 211.81C44.0469 211.513 44.8614 210.773 45.3056 209.588C45.7498 208.403 45.9718 206.329 45.9718 203.219H51.0059L50.858 229.583H45.8239C45.8239 226.695 45.6757 224.696 45.2315 223.511C44.8614 222.4 43.9731 221.659 42.7884 221.363C41.53 221.067 39.3091 220.919 36.1257 220.919H24.0586C12.5837 220.771 6.88329 224.399 6.80927 231.657C6.80927 234.323 7.47554 236.841 8.88213 239.063C10.2887 241.359 12.3616 243.136 15.2488 244.543C18.062 245.95 21.5415 246.617 25.6874 246.691H35.9776C39.235 246.765 41.53 246.691 42.7144 246.395C43.899 246.098 44.7133 245.432 45.1575 244.321C45.6017 243.21 45.8239 241.211 45.8239 238.248H50.858L50.7099 264.612H45.6757L45.6017 264.688Z" fill="#601C1D"/>
<path d="M53.0064 192.774C49.8971 195.07 46.2696 196.403 41.9757 196.773C37.7561 197.07 33.1661 196.403 28.354 194.626C23.542 192.848 19.5443 190.553 16.4349 187.516C13.3256 184.554 11.3268 181.221 10.4384 177.445C9.55005 173.742 9.77214 169.89 11.2528 165.891C12.6594 162.114 14.6582 159.004 17.3974 156.634C20.1365 154.264 23.2458 152.783 26.7254 152.117L17.0272 148.636C13.9919 147.525 11.845 146.932 10.5865 146.784C9.32794 146.636 8.29151 147.081 7.47717 148.043C6.66283 149.006 5.77444 150.932 4.73802 153.82L0 152.117L6.07058 135.379L54.1169 152.709C57.2262 153.82 59.373 154.487 60.6317 154.634C61.8902 154.783 62.8527 154.412 63.6669 153.45C64.4812 152.487 65.3696 150.561 66.4061 147.673L71.1442 149.376L65.1476 165.966L56.8561 162.929C59.0029 165.521 60.4095 168.557 61.0759 172.038C61.7421 175.519 61.372 179.296 59.8913 183.295C58.4108 187.368 56.1159 190.553 53.0804 192.848L53.0064 192.774ZM53.3767 165.817C51.0077 162.04 47.0839 159.152 41.7537 157.227C36.4235 155.301 31.6114 155.005 27.3915 156.412C23.1718 157.819 20.2846 160.707 18.6559 165.225C17.1012 169.52 17.5454 173.445 19.8404 177.074C22.2094 180.703 26.059 183.517 31.5373 185.517C37.0897 187.516 41.9018 187.887 46.0476 186.554C50.1931 185.294 53.0064 182.48 54.5611 178.111C56.1897 173.667 55.7455 169.52 53.3767 165.743V165.817Z" fill="#601C1D"/>
<path d="M75.585 145.453C74.0302 145.823 72.4757 145.527 70.995 144.564C69.5143 143.601 68.5519 142.343 68.2559 140.713C67.9598 139.084 68.2559 137.603 69.2183 136.047C70.1807 134.566 71.4392 133.604 72.994 133.307C74.5485 132.937 76.1032 133.307 77.5839 134.27C79.0643 135.233 80.0268 136.492 80.3231 138.047C80.6932 139.602 80.3231 141.157 79.3606 142.639C78.3982 144.12 77.1397 145.083 75.5109 145.453H75.585Z" fill="#601C1D"/>
<g clip-path="url(#clip1_6080_122)">
<path d="M226.016 167.094C231.402 166.658 236.846 167.836 242.141 168.72C250.204 169.887 258.359 174.92 265.193 180.508C272.452 186.425 280.928 193.038 284.822 201.371C291.38 216.046 292.471 232.879 289.255 248.544C286.143 259.235 282.778 270.162 276.012 279.214C266.927 289.575 255.936 299.241 242.669 302.754C234.63 305.866 227.199 309.214 218.768 308.989C198.255 309.307 164.154 294.538 151.129 278.012C146.604 272.237 143.756 265.541 140.723 259.188C137.772 252.646 134.372 245.951 132.925 238.878C131.121 229.248 132.477 220.431 132.672 210.495C133.327 202.715 134.613 194.853 140.563 190.268C146.512 185.812 154.403 191.163 155.85 197.929C157.607 205.025 155.115 212.546 155.884 220.042C156.252 223.979 156.907 228.01 157.734 231.865C160.123 242.686 163.557 254.379 170.173 263.373C175.628 271.034 183.852 276.15 192.317 279.863C206.846 286.959 225.923 288.373 240.177 279.25C252.329 272.166 262.746 261.663 265.882 247.188C267.387 239.68 268.317 231.382 266.376 223.944C263.78 215.457 259.083 207.053 252.134 201.748C240.591 193.981 224.109 191.187 211.555 198.377C206.41 201.56 202.332 206.18 201 212.121C199.438 220.172 199.449 231.535 206.789 236.544C212.726 240.069 209.316 229.92 209.683 225.217C209.729 222.482 210.51 219.818 211.751 217.437C217.734 207.689 232.654 205.037 241.418 212.734C249.722 219.983 251.525 231.936 249.584 242.344C247.608 252.693 238.776 260.78 229.611 264.539C221.95 267.05 211.36 266.685 203.699 265.058C198.588 263.762 194.97 260.732 190.709 257.29C178.086 247.318 174.617 239.055 173.021 223.272C172.389 213.3 176.788 203.988 180.877 195.195C189.595 178.374 207.903 169.003 225.809 167.094H226.016Z" fill="#601D1D"/>
</g>
</g>
<defs>
<clipPath id="clip0_6080_122">
<rect width="449" height="472" fill="white"/>
</clipPath>
<clipPath id="clip1_6080_122">
<rect width="159" height="142" fill="white" transform="translate(132 167)"/>
</clipPath>
</defs>
</svg>
