<svg width="588" height="339" viewBox="0 0 588 339" fill="none" xmlns="http://www.w3.org/2000/svg">
<g clip-path="url(#clip0_6080_171)">
<path d="M136.576 160.562L132.514 156.353C132.514 156.353 132.228 156.065 132.171 155.835C130.798 152.894 129.196 145.688 128.91 142.575V62.6731L127.766 61.52H104.309C103.737 61.52 103.222 61.7508 102.936 62.1541C102.307 62.7883 102.192 63.8262 102.822 64.6333C102.936 64.7485 102.994 64.8063 103.108 64.9215C103.28 65.0366 103.394 65.1523 103.566 65.2675C104.023 65.6134 104.481 66.0168 104.881 66.4206C105.053 66.5357 105.167 66.7087 105.339 66.8239C105.74 67.2277 106.14 67.6888 106.483 68.2651C109.115 72.4159 110.202 79.507 110.488 84.3492C111.575 100.722 111.518 124.531 110.488 140.961C110.145 146.438 108.772 155.777 104.71 159.928C104.595 160.043 104.424 160.216 104.309 160.332C103.394 161.138 103.451 162.407 104.138 163.156C104.481 163.502 104.939 163.733 105.511 163.733H135.318C135.318 163.733 135.89 163.675 136.119 163.56C136.233 163.56 136.348 163.444 136.462 163.387C136.576 163.329 136.634 163.214 136.748 163.156C137.377 162.464 137.492 161.311 136.748 160.504L136.576 160.562Z" fill="#601D1D"/>
<path d="M288.7 160.33L286.355 158.025C286.355 158.025 286.125 157.794 286.011 157.621C278.688 145.572 283.036 107.697 282.178 92.0737C281.492 79.4484 279.031 68.9564 266.273 63.9407C264.9 63.4217 263.527 62.9027 262.154 62.4994C262.154 62.4994 262.097 62.4994 262.04 62.4994C261.41 62.3264 260.724 62.1535 260.094 61.9805C254.888 60.77 249.51 60.4241 244.189 60.943C243.446 61.0004 242.702 61.116 241.959 61.2312C237.896 61.7501 233.835 62.7298 230.116 64.5748C229.601 64.863 229.029 65.1511 228.514 65.4398C225.138 67.2843 222.049 69.5905 219.246 72.3C216.728 74.6635 213.181 78.2953 211.808 82.1001C211.064 84.1182 211.007 86.1935 211.979 88.2111C212.609 89.4793 213.81 90.5746 215.241 90.8628C215.984 90.9784 216.671 90.9206 217.358 90.6898C219.017 90.1135 220.504 88.5571 221.649 87.058C223.079 85.1556 224.337 83.1381 225.539 81.12C225.539 81.12 225.539 81.12 225.539 81.0627C227.541 77.6034 229.372 74.0868 231.889 70.9739C232.118 70.6858 232.347 70.455 232.519 70.1668C232.747 69.936 232.976 69.6478 233.148 69.4175C233.491 69.0715 233.835 68.7256 234.177 68.3796L234.407 68.2066C234.407 68.2066 234.635 67.9763 234.75 67.9184C235.093 67.5725 235.494 67.2265 235.894 66.9383C240.013 63.6525 244.933 62.3843 250.14 62.9606C250.483 62.9606 250.769 63.0757 251.112 63.0757C251.513 63.1336 251.856 63.1914 252.256 63.2487C264.9 65.8431 263.069 86.0779 262.726 96.5126C262.726 97.3197 262.211 98.0117 261.41 98.242C242.016 104.526 208.776 109.714 202.368 132.025C195.045 157.506 230.116 171.687 249.167 160.503C255.46 156.814 257.005 152.894 261.01 147.705C261.524 147.071 261.01 146.264 262.783 146.725C262.097 153.47 266.101 162.406 273.196 163.79C277.086 164.539 282.464 163.79 287.27 163.617C288.929 163.617 289.73 161.541 288.529 160.33H288.7ZM262.955 141.71C262.955 143.785 256.719 151.972 254.831 153.701C239.212 168.113 215.984 158.428 218.33 136.406C220.39 117.151 243.331 105.217 260.552 100.894C261.754 100.606 262.955 101.47 262.955 102.739V141.768V141.71Z" fill="#601D1D"/>
<path d="M152.996 63.8262C151.165 63.8262 150.021 62.0968 150.479 60.3674C150.937 58.5224 153.969 57.4849 155.456 56.7351C159.518 54.7176 161.407 53.6802 163.409 49.2409C167.928 39.0946 168.157 26.9883 163.752 16.7843C161.749 12.1147 158.431 8.07927 153.969 5.5427C151.852 4.33204 149.564 3.52495 147.218 3.06375C131.313 -0.222264 114.092 11.077 109.516 26.5271C108.829 28.7754 108.886 32.465 112.262 31.0814C115.065 29.9284 117.64 29.3519 121.187 30.9661C135.146 37.2499 121.816 59.2722 109.687 48.7798C104.481 44.2831 105.339 35.5781 106.655 29.5825C109.745 15.516 119.928 3.75555 134.231 0.700129C145.387 -1.6635 157.459 2.02606 165.068 10.7311C169.931 16.2655 172.391 23.5293 173.821 30.6202C175.709 39.8441 175.194 49.4139 175.194 58.8105C175.194 60.3096 176.396 61.5205 177.883 61.5205H193.216C194.245 61.5205 195.161 62.0968 195.619 63.0191L196.019 63.8841H176.396L175.251 65.0367V144.075C175.251 145.112 176.682 150.128 177.368 151.223C178.856 153.586 180.686 154.105 182.575 153.702C185.149 153.125 186.808 156.469 184.863 158.256C179.142 163.617 170.903 166.154 164.038 161.484C158.431 157.679 157.116 148.917 156.715 142.518C155.17 118.535 159.461 89.653 156.772 66.5357C156.772 66.4206 156.772 66.3627 156.772 66.2476C156.658 64.8642 155.514 63.8841 154.14 63.8841H153.168L152.996 63.8262Z" fill="#601D1D"/>
<path d="M89.4916 61.52C91.5511 61.52 92.5238 64.0565 90.979 65.4405C70.841 84.1762 62.6026 136.349 50.1305 161.657C48.0135 165.405 46.6405 164.078 45.0386 161.023C31.5939 135.081 22.8406 103.72 9.05266 77.9501C6.59258 73.396 3.96087 69.6485 0.642614 66.1897C-0.730456 64.7485 0.242134 62.3271 2.18732 62.3271H31.9372C33.7679 62.3271 34.7977 64.4025 33.7679 65.9016C32.7381 67.4002 31.5939 68.8993 31.2507 70.6865C29.7632 78.1809 32.4521 86.3094 35.141 93.2275C38.5165 101.932 42.8073 110.234 46.8693 118.593C48.3568 121.591 49.7871 124.588 51.16 127.702C51.7893 129.085 52.3614 130.469 52.8766 131.853C53.5628 133.64 53.6774 135.254 54.8788 136.926C55.1076 137.214 55.3936 137.56 55.7942 137.502C56.1949 137.502 56.4236 136.983 56.5382 136.58C58.1397 131.68 59.8564 127.01 61.0005 121.937C61.4012 120.15 61.7445 118.362 62.3733 116.633C63.06 114.731 63.7467 112.886 64.4333 110.984C69.1244 98.5887 77.8208 82.6776 70.0971 69.6485C69.239 68.2073 68.209 66.939 67.0649 65.7286C67.0076 65.6708 66.9503 65.6134 66.8362 65.5556C65.2341 64.2295 66.2068 61.5779 68.2663 61.5779H89.4916V61.52Z" fill="#601D1D"/>
<path d="M194.841 319.799C195.47 323.373 196.157 326.947 197.988 330.118C198.102 330.291 198.216 330.464 198.388 330.637L200.791 332.943C202.221 334.269 201.248 336.69 199.304 336.69H170.984C169.039 336.69 168.123 334.269 169.554 332.885C169.554 332.885 169.554 332.885 169.554 332.828C173.73 328.562 174.989 320.375 175.332 314.61C176.419 298.065 176.362 273.737 175.332 257.192C174.874 250.043 173.673 243.759 169.382 238.744C168.123 237.303 169.096 235.112 170.984 235.112H191.637C192.839 235.112 193.754 236.092 193.754 237.245V255.231L194.784 319.684L194.841 319.799Z" fill="#601D1D"/>
<path d="M266.468 336.689H238.434C236.375 336.689 235.516 334.037 237.118 332.827C237.347 332.654 237.576 332.481 237.747 332.25C244.842 323.949 243.64 294.144 243.182 282.845C242.553 267.971 241.981 244.738 225.218 238.916C222.472 237.993 219.554 237.475 216.693 237.821C213.833 238.166 211.258 239.319 208.57 240.415C208.226 240.53 207.883 240.703 207.54 240.703C207.197 240.703 206.796 240.588 206.567 240.242C205.766 238.973 209.828 236.841 210.744 236.264C213.375 234.65 216.121 233.497 219.154 233.036C222.415 232.517 225.676 232.574 228.937 232.92C269.214 236.841 259.717 287.514 261.662 314.667C262.177 321.931 263.607 328.157 268.069 333.057C269.385 334.499 268.413 336.747 266.524 336.747L266.468 336.689Z" fill="#601D1D"/>
<path d="M107.076 335.307C105.76 335.826 104.502 336.229 103.129 336.517C94.6615 338.189 86.0224 336.114 78.7566 331.559C78.3565 331.271 77.8985 330.983 77.4979 330.695C76.6971 330.118 75.8963 329.484 75.0951 328.792C74.2943 328.101 73.5503 327.409 72.8069 326.659C67.6579 321.413 63.653 314.38 61.7649 305.675C57.188 284.575 63.939 261.285 56.0439 241.454C55.9293 241.223 55.8152 240.992 55.6432 240.762L53.8698 238.744C53.1831 237.937 53.1831 236.899 53.641 236.092C54.0417 235.516 54.671 235.112 55.4718 235.112H76.2397C76.6971 235.112 77.0978 235.227 77.4411 235.458C78.0132 235.862 78.3565 236.496 78.4133 237.245L79.1573 295.932C79.2719 304.925 81.0453 315.475 86.3657 322.912C92.4874 331.502 103.873 333.347 113.141 328.908C113.541 328.735 113.999 328.504 114.457 328.447C114.914 328.389 115.429 328.677 115.601 329.081C115.887 330.003 114.457 330.925 113.885 331.386C112.912 332.136 111.939 332.77 110.91 333.347C109.708 334.038 108.45 334.615 107.191 335.134L107.076 335.307Z" fill="#601D1D"/>
<path d="M152.561 335.999C152.217 336.402 151.645 336.69 151.016 336.69C148.956 336.69 146.896 336.69 144.837 336.69C141.919 336.69 138.887 336.863 136.141 335.653C134.367 334.846 132.823 333.577 131.621 332.02C130.248 330.291 129.619 328.677 129.218 326.544C128.303 321.759 127.731 316.917 127.502 312.074C127.216 306.597 127.616 301.121 127.788 295.644C128.246 282.788 128.532 269.875 127.273 257.019C126.758 252.061 126.415 246.066 123.84 241.684C123.669 241.396 123.497 241.108 123.326 240.819C123.154 240.531 122.982 240.301 122.753 240.07C122.582 239.839 122.353 239.609 122.181 239.436C122.01 239.205 121.781 239.032 121.609 238.859C120.751 238.052 120.751 236.899 121.266 236.092C121.666 235.516 122.296 235.112 123.097 235.112H144.036C144.665 235.112 145.18 235.343 145.581 235.746C145.981 236.15 146.21 236.669 146.21 237.245V316.801C146.21 318.589 148.67 326.832 149.643 328.85C150.386 330.407 151.245 331.502 152.16 332.424C152.275 332.539 152.389 332.712 152.561 332.828C152.675 332.943 152.789 333.058 152.847 333.174C152.961 333.289 153.018 333.462 153.075 333.577C153.419 334.384 153.247 335.307 152.675 335.883L152.561 335.999Z" fill="#601D1D"/>
<path d="M366.303 333.232L363.957 330.926C363.842 330.811 363.728 330.696 363.614 330.523C362.813 329.197 362.126 327.525 361.554 325.622C361.497 325.449 361.44 325.277 361.382 325.046C357.263 309.538 360.524 278.754 359.781 264.975C359.781 264.687 359.781 264.456 359.781 264.168C359.209 254.829 357.549 246.643 351.199 241.166C351.028 240.993 350.856 240.878 350.684 240.705C348.968 239.264 346.908 238.053 344.448 237.015C344.276 236.958 344.105 236.9 343.933 236.785C342.56 236.266 341.187 235.747 339.814 235.344C339.814 235.344 339.757 235.344 339.7 235.344C338.155 234.882 336.553 234.537 334.951 234.248C334.779 234.248 334.551 234.191 334.379 234.133C330.26 233.441 326.026 233.326 321.907 233.787C321.163 233.845 320.419 233.96 319.676 234.075C315.613 234.594 311.551 235.574 307.833 237.419C307.318 237.707 306.746 237.995 306.231 238.283C304.171 239.437 302.226 240.705 300.395 242.146C299.194 243.068 298.05 244.048 296.906 245.144C294.617 247.392 291.356 250.621 289.811 254.137C289.697 254.425 289.583 254.656 289.468 254.944C288.724 256.962 288.667 259.037 289.64 261.055C290.269 262.324 291.47 263.419 292.901 263.707C293.644 263.822 294.331 263.765 295.018 263.534C295.018 263.534 295.018 263.534 295.075 263.534C296.734 262.958 298.164 261.459 299.308 259.96C300.739 258.058 301.997 256.04 303.199 254.022C303.199 254.022 303.199 254.022 303.199 253.964C305.201 250.505 307.032 246.989 309.549 243.875C310.007 243.357 310.407 242.838 310.865 242.319C311.208 241.973 311.551 241.627 311.895 241.282L312.124 241.109C312.124 241.109 312.353 240.878 312.467 240.82C312.467 240.82 312.467 240.82 312.524 240.763C312.867 240.474 313.211 240.129 313.611 239.84C318.016 236.381 323.223 235.113 328.83 235.978C329.23 236.035 329.573 236.093 329.974 236.151C330.26 236.151 330.488 236.266 330.717 236.324C330.717 236.324 330.717 236.324 330.774 236.324C333.235 237.015 335.123 238.456 336.553 240.359C341.759 247.508 340.615 261.286 340.386 269.357C340.386 269.472 340.386 269.645 340.329 269.76C340.214 270.394 339.757 270.913 339.07 271.144C336.667 271.951 333.979 272.7 331.232 273.508C331.232 273.508 331.175 273.508 331.118 273.508C311.723 279.042 285.635 285.383 280.028 304.926C272.705 330.35 307.604 344.532 326.712 333.521C326.712 333.521 326.827 333.52 326.827 333.463C333.12 329.773 334.665 325.853 338.67 320.664C339.128 320.088 338.784 319.454 339.871 319.569C340.043 319.569 340.214 319.569 340.443 319.685C339.757 326.429 343.761 335.365 350.856 336.749C351.886 336.922 352.972 337.037 354.117 337.037C357.378 337.152 361.154 336.691 364.644 336.576C364.758 336.576 364.815 336.576 364.93 336.576C366.589 336.576 367.39 334.501 366.188 333.29L366.303 333.232ZM332.434 326.602C316.815 341.015 293.587 331.33 295.933 309.308C297.992 290.053 320.934 278.119 338.155 273.796C339.356 273.508 340.558 274.372 340.558 275.64V314.669C340.558 316.744 334.321 324.931 332.434 326.66V326.602Z" fill="#601D1D"/>
<path d="M36.0193 320.317C36.3626 322.392 37.6784 326.601 38.7082 328.734C38.8799 329.137 39.1087 329.425 39.3948 329.771L39.8525 330.29C42.1409 332.711 40.4246 336.689 37.1063 336.689H15.4804C12.1622 336.689 10.4459 332.654 12.7343 330.232C13.0204 329.886 13.3064 329.541 13.4781 329.079C15.3088 324.756 16.6247 320.432 16.6819 315.762C16.8536 306.481 17.0252 297.257 17.254 287.975C17.6545 266.126 17.6545 244.335 17.3684 222.486C17.254 214.184 17.1968 204.672 12.4483 197.581C10.7892 195.102 12.6199 191.758 15.5949 191.758H34.7607L35.9049 192.911V319.682C35.9049 319.682 35.9049 320.028 35.9049 320.259L36.0193 320.317Z" fill="#601D1D"/>
<path d="M559.103 239.55C555.615 238.052 552.122 237.129 548.35 236.553C547.832 236.495 547.204 236.322 546.975 235.861C546.805 235.515 546.92 235.111 547.089 234.765C548.006 233.44 549.551 233.67 551.036 233.613C552.695 233.613 554.414 233.613 556.074 233.728C559.447 233.958 562.821 234.592 566.085 235.573C572.263 237.418 582.215 241.395 582.788 248.775C582.902 250.561 582.444 252.464 581.128 253.675C580.102 254.655 578.612 255.058 577.182 255.001C576.898 255.001 576.609 255.001 576.325 254.885C574.665 254.597 573.121 253.675 571.805 252.579C567.171 248.775 564.709 241.972 559.048 239.55H559.103Z" fill="#601D1D"/>
<path d="M552.695 334.442C552.695 334.442 553.039 334.788 553.099 335.019C553.213 335.365 553.039 335.768 552.755 335.999C552.466 336.23 552.122 336.403 551.778 336.46C550.981 336.576 550.179 336.576 549.376 336.576C548.35 336.576 547.373 336.518 546.347 336.46C537.307 335.826 526.205 334.154 519.114 328.043C514.824 324.354 512.078 318.473 513.219 312.939C513.738 310.288 515.566 307.578 518.257 307.405C520.943 307.232 523.061 309.711 524.376 312.132C525.976 315.188 527.979 318.012 530.271 320.607C532.728 323.431 535.533 326.026 538.563 328.274C541.598 330.522 544.802 332.31 548.29 333.462C548.918 333.693 549.551 333.866 550.179 334.039C550.463 334.096 550.807 334.212 551.096 334.269C551.494 334.327 551.893 334.269 552.296 334.269C552.466 334.269 552.64 334.385 552.755 334.5L552.695 334.442Z" fill="#601D1D"/>
<path d="M585.479 316.51C584.218 319.739 582.389 322.679 580.102 325.216C577.81 327.752 575.293 329.712 572.433 331.327C571.003 332.134 569.518 332.825 567.973 333.459C567.226 333.747 566.428 334.036 565.626 334.324C564.824 334.612 564.022 334.901 563.224 334.901C562.995 334.901 562.821 334.901 562.591 334.843C562.253 334.728 561.964 334.439 562.023 334.093C562.023 333.402 563.454 333.171 563.967 332.94C564.824 332.537 565.681 332.076 566.428 331.557C578.557 323.486 572.777 309.132 564.196 300.887C549.491 286.706 507.1 278.058 522.029 248.945C523.803 245.486 526.494 242.546 529.639 240.298C530.899 239.375 532.215 238.626 533.585 237.934C534.273 237.589 534.96 237.243 535.648 236.954C536.391 236.608 537.193 236.435 537.995 236.205C538.334 236.09 538.678 235.974 538.967 236.147C539.251 236.263 539.425 236.551 539.48 236.839C539.54 237.127 539.48 237.416 539.311 237.704C538.792 238.972 537.591 239.26 536.62 240.125C530.157 245.774 532.613 254.768 537.018 260.879C550.752 279.903 599.551 281.114 585.479 316.683V316.51Z" fill="#601D1D"/>
<path d="M493.024 208.939C492.109 206.922 490.393 205.192 488.39 204.097C487.932 203.866 487.474 203.636 487.017 203.463C487.017 203.463 486.559 203.29 486.273 203.232C485.072 202.886 483.756 202.713 482.554 202.829C473.344 203.636 469.339 215.857 476.49 221.68C477.52 222.487 478.55 223.121 479.579 223.525C480.037 223.698 480.437 223.813 480.895 223.928C481.353 224.044 481.868 224.101 482.325 224.159C489.763 224.908 496.686 217.183 493.024 208.939Z" fill="#601D1D"/>
<path d="M413.958 332.942L412.185 331.27C411.384 330.463 410.812 329.483 410.354 328.445C406.063 319.048 406.178 282.037 407.151 270.046V237.128C407.036 236.033 406.121 235.168 405.034 235.168H384.323C382.435 235.168 381.52 237.417 382.779 238.8C387.241 243.988 388.328 250.561 388.786 257.94C389.758 274.312 389.758 297.43 388.786 313.802C388.442 319.509 387.47 325.217 384.781 330.232C384.667 330.405 384.552 330.578 384.381 330.751L382.264 332.942C380.948 334.325 381.92 336.631 383.809 336.631H412.471C414.416 336.631 415.389 334.21 413.958 332.884V332.942Z" fill="#601D1D"/>
<path d="M502.919 333L500.059 330.118C500.059 330.118 499.775 329.829 499.715 329.656C498.115 326.601 495.827 317.55 495.827 314.61V237.359C495.827 236.783 495.598 236.207 495.198 235.861C494.854 235.457 494.282 235.227 493.653 235.227H473C472.37 235.227 471.798 235.515 471.455 235.918C470.768 236.668 470.597 237.936 471.455 238.858C475.803 243.816 476.947 250.158 477.405 257.306C478.435 273.852 478.492 298.18 477.405 314.725C477.062 320.49 475.803 328.676 471.627 332.942C471.627 332.942 471.627 332.942 471.57 332.942C470.711 333.749 470.711 334.903 471.226 335.767C471.57 336.344 472.199 336.747 473.057 336.747H501.489C502.122 336.747 502.69 336.459 503.034 336.055C503.781 335.248 503.896 333.922 503.034 333H502.919Z" fill="#601D1D"/>
<path d="M460.584 244.102C460.813 245.255 460.642 246.581 459.955 247.965C458.868 250.155 456.293 251.539 453.833 251.193C451.659 250.905 449.886 249.463 448.226 248.08C445.252 245.601 442.162 242.258 438.672 240.643C435.182 239.029 430.72 239.086 427.173 240.009C424.598 240.701 422.195 241.912 420.136 243.526C418.82 244.563 416.818 248.08 414.872 247.273C414.186 246.985 413.786 246.235 413.786 245.486C413.786 244.736 414.072 243.987 414.415 243.353C417.275 237.876 424.656 234.359 430.434 233.206C436.727 231.938 443.363 232.745 449.314 235.051C453.033 236.55 459.726 239.548 460.641 244.102H460.584Z" fill="#601D1D"/>
</g>
<defs>
<clipPath id="clip0_6080_171">
<rect width="588" height="339" fill="white"/>
</clipPath>
</defs>
</svg>
