<svg width="883" height="151" viewBox="0 0 883 151" fill="none" xmlns="http://www.w3.org/2000/svg">
<g clip-path="url(#clip0_6080_271)">
<mask id="mask0_6080_271" style="mask-type:luminance" maskUnits="userSpaceOnUse" x="0" y="0" width="883" height="151">
<path d="M883 0H0V151H883V0Z" fill="white"/>
</mask>
<g mask="url(#mask0_6080_271)">
<path d="M792.689 32.4088C791.826 30.5287 790.214 28.9643 788.294 27.9596C787.87 27.73 787.445 27.5291 786.992 27.3712H786.975C786.742 27.2851 786.522 27.2133 786.289 27.1416C785.129 26.7971 783.913 26.6536 782.728 26.7541C773.981 27.486 770.141 38.7668 776.983 44.1777C777.937 44.9242 778.934 45.4837 779.943 45.8712C780.353 46.029 780.763 46.1584 781.19 46.2444C781.643 46.3592 782.099 46.431 782.537 46.474C789.627 47.1487 796.207 40.0443 792.689 32.4088ZM514.963 147.012L512.69 144.844C512.53 144.701 512.413 144.557 512.311 144.385C510.582 141.457 509.893 138.171 509.306 134.855L508.355 75.2934V58.6734C508.355 58.1139 508.121 57.6258 507.754 57.2668C507.4 56.8939 506.888 56.6643 506.318 56.6643H486.67C486.055 56.6643 485.528 56.9081 485.191 57.2956C484.516 57.999 484.4 59.1615 485.16 60.0224C489.265 64.6154 490.407 70.4565 490.831 77.0444C491.814 92.3296 491.828 114.805 490.817 130.076C490.464 135.401 489.293 142.979 485.322 146.897C485.308 146.911 485.294 146.94 485.277 146.954C484.371 147.801 484.442 149.078 485.146 149.839C485.499 150.198 486.012 150.442 486.627 150.442H513.541C514.157 150.442 514.684 150.198 515.034 149.825C515.738 149.093 515.84 147.844 514.963 147.012ZM717.56 146.969L715.888 145.447C715.142 144.686 714.601 143.797 714.145 142.849C710.043 134.181 710.174 99.9648 711.126 88.9136V58.4726C711.023 57.4534 710.146 56.6643 709.092 56.6643H689.398C687.612 56.6643 686.732 58.7164 687.905 60.037C692.17 64.845 693.195 70.8873 693.605 77.7476C694.514 92.8892 694.542 114.231 693.605 129.358C693.28 134.626 692.375 139.878 689.794 144.557C689.706 144.729 689.575 144.888 689.429 145.031L687.435 147.04C686.176 148.318 687.099 150.442 688.917 150.442H716.167C718.027 150.442 718.922 148.203 717.56 146.969ZM129.869 147.457L126.03 143.553C125.884 143.409 125.767 143.266 125.693 143.079C124.389 140.352 122.865 133.721 122.573 130.851V57.023L121.474 55.9608L99.1891 55.9466C98.6326 55.9466 98.1782 56.1762 97.8706 56.5207C97.2992 57.1235 97.1819 58.0851 97.7387 58.8028C97.8268 58.8888 97.9145 58.9891 98.0318 59.0754C98.1782 59.1902 98.3101 59.3051 98.4565 59.4199C98.8815 59.7498 99.3065 60.0942 99.7167 60.4675C99.8631 60.5823 100.01 60.7116 100.127 60.8549C100.522 61.2424 100.889 61.6732 101.211 62.1609C103.731 66.0075 104.727 72.5233 105.02 77.0444C106.031 92.186 105.973 114.188 105.02 129.358C104.713 134.425 103.379 143.036 99.5554 146.897C99.4236 147.026 99.3065 147.141 99.1746 147.255C99.1746 147.255 99.1453 147.284 99.1307 147.299C98.2663 148.045 98.3101 149.222 98.9547 149.911C99.2623 150.226 99.7021 150.442 100.259 150.442H128.565C128.829 150.442 129.092 150.384 129.312 150.298C129.415 150.255 129.517 150.198 129.62 150.126C129.708 150.054 129.796 149.983 129.884 149.897C130.484 149.251 130.587 148.188 129.869 147.457ZM802.097 147.026L799.4 144.371C799.255 144.242 799.138 144.098 799.05 143.94C797.511 141.142 795.327 132.774 795.327 130.047V58.6734C795.327 58.1139 795.107 57.6258 794.726 57.2668C794.375 56.8939 793.848 56.6643 793.276 56.6643H773.631C773.012 56.6643 772.5 56.9081 772.164 57.2956C771.491 57.999 771.357 59.1615 772.121 60.0224C776.237 64.6154 777.365 70.4565 777.789 77.0444C778.772 92.3296 778.8 114.805 777.789 130.076C777.439 135.401 776.265 142.979 772.295 146.897C772.28 146.911 772.252 146.926 772.238 146.94C771.446 147.7 771.403 148.777 771.884 149.552C772.238 150.069 772.824 150.442 773.599 150.442H800.645C801.26 150.442 801.775 150.198 802.14 149.825C802.829 149.093 802.946 147.858 802.097 147.026Z" fill="#601D1D"/>
<path d="M509.306 134.855C509.893 138.17 510.582 141.457 512.311 144.385C512.413 144.557 512.545 144.715 512.69 144.858L514.963 147.011C516.296 148.26 515.387 150.456 513.541 150.456H486.627C484.75 150.456 483.915 148.231 485.28 146.954C485.294 146.939 485.308 146.911 485.322 146.896C489.293 142.978 490.464 135.4 490.817 130.076C491.828 114.805 491.814 92.329 490.831 77.0438C490.407 70.4563 489.265 64.6148 485.16 60.0222C483.989 58.7162 484.898 56.6782 486.67 56.6782H506.318C507.446 56.6782 508.355 57.568 508.355 58.6731V75.2928L509.306 134.855Z" fill="#601D1D"/>
<path d="M577.391 150.456H550.753C548.804 150.456 547.956 148.031 549.494 146.868C549.727 146.696 549.918 146.524 550.095 146.323C556.848 138.659 555.692 111.116 555.236 100.668C554.652 86.9331 554.08 65.4478 538.169 60.0944C535.559 59.2189 532.791 58.7882 530.051 59.0611C527.313 59.3338 524.881 60.4389 522.317 61.4435C521.993 61.5725 521.656 61.7019 521.306 61.7161C520.953 61.7304 520.588 61.6013 520.397 61.3144C519.634 60.1229 523.502 58.1568 524.354 57.6545C526.858 56.1761 529.453 55.114 532.338 54.6693C535.414 54.1955 538.55 54.2385 541.655 54.5399C579.94 58.1711 570.914 104.974 572.759 130.09C573.244 136.779 574.636 142.577 578.855 147.069C580.085 148.375 579.208 150.471 577.391 150.471V150.456Z" fill="#601D1D"/>
<path d="M425.854 149.179C424.592 149.652 423.421 150.054 422.074 150.312C414.044 151.848 405.781 149.939 398.925 145.705C398.529 145.461 398.133 145.189 397.737 144.916C396.96 144.385 396.199 143.796 395.453 143.179C394.704 142.562 393.986 141.902 393.282 141.213C388.375 136.391 384.581 129.86 382.778 121.823C378.411 102.318 384.86 80.8332 377.329 62.491C377.24 62.2613 377.109 62.0462 376.933 61.8738L375.232 60.008C374.56 59.2761 374.588 58.2857 375.027 57.5826C375.395 57.037 376.01 56.6641 376.756 56.6641H396.521C396.931 56.6641 397.327 56.7931 397.649 56.994C398.19 57.353 398.543 57.9558 398.558 58.6447C398.558 58.6447 399.247 112.853 399.247 112.882C399.35 121.177 401.064 130.965 406.089 137.826C411.934 145.777 422.718 147.471 431.568 143.366C431.964 143.179 432.374 142.979 432.812 142.964C433.251 142.95 433.735 143.165 433.866 143.581C434.145 144.442 432.798 145.303 432.226 145.734C431.317 146.408 430.38 147.011 429.4 147.557C428.255 148.188 427.07 148.734 425.854 149.193V149.179Z" fill="#601D1D"/>
<path d="M469.089 149.824C468.753 150.197 468.241 150.456 467.608 150.456C465.646 150.456 463.683 150.456 461.721 150.456C458.949 150.456 456.078 150.628 453.472 149.494C451.785 148.762 450.336 147.571 449.193 146.164C447.875 144.557 447.274 143.093 446.892 141.098C446.043 136.692 445.485 132.228 445.237 127.736C444.944 122.684 445.325 117.632 445.502 112.58C445.912 100.696 446.22 88.7697 445.003 76.9148C444.533 72.3364 444.197 66.7964 441.765 62.7347C441.602 62.4621 441.429 62.2037 441.252 61.9598C441.076 61.7156 440.899 61.486 440.725 61.2851C440.549 61.0698 440.358 60.8689 440.167 60.6823C439.99 60.4957 439.802 60.3093 439.611 60.137C438.82 59.4051 438.805 58.3429 439.29 57.5968C439.654 57.0512 440.255 56.6782 441.019 56.6782H460.929C461.498 56.6782 461.997 56.9079 462.379 57.2666C462.746 57.6252 462.98 58.1133 462.98 58.6731V132.2C462.98 133.865 465.324 141.486 466.247 143.323C466.979 144.772 467.756 145.777 468.619 146.609C468.722 146.724 468.856 146.853 468.987 146.968C469.104 147.069 469.206 147.183 469.28 147.298C469.369 147.413 469.426 147.542 469.485 147.671C469.807 148.403 469.631 149.264 469.089 149.824Z" fill="#601D1D"/>
<path d="M274.432 147.255L272.206 145.131C272.088 145.016 271.986 144.901 271.898 144.758C264.924 133.635 269.056 98.6442 268.279 84.1915C267.649 72.5374 265.305 62.8352 253.159 58.1853C251.855 57.683 250.551 57.2522 249.218 56.8793C249.188 56.8793 249.144 56.8793 249.115 56.8505C248.5 56.6781 247.885 56.5345 247.269 56.3912C242.332 55.2573 237.204 54.9416 232.164 55.4582C231.461 55.53 230.772 55.616 230.069 55.7023C226.186 56.2046 222.347 57.0656 218.831 58.7878C218.318 59.0463 217.806 59.3047 217.307 59.5916C214.113 61.3141 211.154 63.4523 208.487 65.921C206.114 68.1313 202.715 71.4468 201.44 74.9916C200.751 76.8574 200.663 78.7951 201.63 80.6609C202.246 81.8521 203.374 82.8567 204.722 83.0863C205.425 83.2154 206.099 83.1439 206.744 82.9142C208.341 82.3832 209.747 80.9621 210.832 79.5843C212.209 77.819 213.381 75.9677 214.509 74.073C214.524 74.0588 214.538 74.03 214.553 74.0012C216.458 70.8009 218.201 67.5572 220.575 64.658C220.78 64.4142 220.985 64.17 221.19 63.9261C221.395 63.6965 221.6 63.4523 221.805 63.2372C222.113 62.907 222.435 62.5771 222.772 62.2611L222.963 62.0745C223.065 61.9742 223.168 61.8737 223.285 61.7876C223.637 61.4719 223.988 61.1705 224.355 60.8979C228.267 57.8693 232.925 56.6926 237.878 57.2237C238.185 57.2667 238.493 57.3098 238.801 57.3528C239.167 57.41 239.533 57.4676 239.899 57.5394C251.899 59.9218 250.155 78.6372 249.862 88.2676C249.848 89.0138 249.364 89.6597 248.632 89.8893C230.215 95.7162 198.598 100.467 192.503 121.12C185.529 144.658 218.86 157.747 236.999 147.442C242.976 144.04 244.471 140.395 248.265 135.601C248.734 134.998 248.265 134.295 249.936 134.697C249.306 140.926 253.086 149.207 259.825 150.441C263.532 151.116 268.645 150.427 273.216 150.298C274.814 150.255 275.575 148.36 274.432 147.255ZM249.95 130.047C249.95 131.97 244.031 139.505 242.244 141.112C227.402 154.431 205.323 145.504 207.564 125.11C209.513 107.342 231.343 96.2903 247.679 92.2717C248.822 91.9848 249.95 92.8173 249.95 93.9797V130.047Z" fill="#601D1D"/>
<path d="M672.242 147.255H672.228L670.015 145.131C669.898 145.016 669.795 144.901 669.707 144.758C668.929 143.523 668.286 141.988 667.773 140.208C667.716 140.036 667.67 139.863 667.614 139.677C663.671 125.368 666.776 96.8786 666.09 84.1912C666.073 83.947 666.058 83.7031 666.044 83.459C665.517 74.8047 663.933 67.284 657.912 62.1891C657.752 62.0455 657.576 61.9022 657.399 61.7728C655.759 60.4526 653.796 59.3186 651.466 58.3858C651.307 58.3141 651.144 58.2565 650.968 58.1847C649.663 57.6824 648.361 57.2519 647.028 56.8787C646.997 56.8787 646.954 56.8787 646.926 56.8499C645.43 56.4482 643.921 56.1038 642.397 55.8596C642.223 55.8166 642.032 55.7881 641.841 55.7736C637.928 55.1564 633.914 55.0416 629.972 55.4579C629.269 55.5297 628.582 55.6157 627.879 55.7018C623.996 56.2043 620.157 57.0653 616.642 58.7876C616.129 59.046 615.616 59.3044 615.118 59.5913C613.184 60.6392 611.338 61.8304 609.595 63.1651C608.45 64.0261 607.353 64.9447 606.296 65.9208C604.1 67.9729 601.007 70.9727 599.557 74.2306C599.44 74.4745 599.338 74.7329 599.249 74.9913C598.56 76.8571 598.472 78.7945 599.44 80.6603C600.056 81.8515 601.183 82.8564 602.531 83.086C603.234 83.2151 603.909 83.1433 604.553 82.9137C604.567 82.9137 604.599 82.9137 604.613 82.8849C606.18 82.3541 607.572 80.9475 608.641 79.584C610.019 77.8187 611.19 75.9671 612.318 74.0728C612.332 74.0585 612.349 74.0297 612.363 74.001C614.266 70.8003 616.009 67.5567 618.385 64.6578C618.795 64.1697 619.205 63.6817 619.615 63.2367C619.923 62.9067 620.245 62.5765 620.581 62.2609L620.772 62.0742C620.874 61.9737 620.977 61.8734 621.094 61.7873C621.108 61.7873 621.139 61.7586 621.154 61.7298C621.49 61.4429 621.811 61.1557 622.165 60.8973C626.326 57.6824 631.322 56.5488 636.609 57.3525C636.976 57.4098 637.344 57.4673 637.708 57.5388C637.959 57.5821 638.207 57.6394 638.44 57.7112C638.472 57.7112 638.486 57.7254 638.514 57.7254C640.873 58.3713 642.647 59.6919 643.995 61.4714C643.995 61.4714 644.009 61.4714 644.009 61.5002C648.977 68.0877 647.891 80.8615 647.672 88.267C647.672 88.3964 647.658 88.5112 647.612 88.626C647.495 89.2144 647.057 89.7024 646.441 89.889C644.14 90.6209 641.622 91.3241 638.984 92.056C638.953 92.056 638.925 92.056 638.882 92.0848C620.421 97.1798 595.632 103.079 590.311 121.12C583.353 144.6 616.508 157.689 634.678 147.513C634.72 147.484 634.763 147.47 634.809 147.441C640.785 144.04 642.28 140.395 646.074 135.601C646.484 135.07 646.177 134.467 647.219 134.611C647.364 134.611 647.541 134.639 647.746 134.697C647.114 140.926 650.896 149.207 657.636 150.441C658.601 150.613 659.641 150.699 660.755 150.714C663.862 150.8 667.437 150.412 670.747 150.312C670.835 150.312 670.938 150.312 671.026 150.312C672.624 150.269 673.384 148.374 672.242 147.269V147.255ZM640.053 141.112C625.212 154.431 603.132 145.504 605.373 125.109C607.322 107.341 629.152 96.29 645.49 92.2714C646.632 91.9842 647.76 92.8167 647.76 93.9794V130.046C647.76 131.97 641.841 139.505 640.053 141.112Z" fill="#601D1D"/>
<path d="M358.324 135.299C358.632 137.208 359.922 141.083 360.905 143.092C361.079 143.437 361.284 143.753 361.563 144.04L362.019 144.499C364.2 146.738 362.574 150.441 359.424 150.441H338.87C335.719 150.441 334.093 146.738 336.289 144.499C336.583 144.198 336.833 143.839 337.007 143.451C338.75 139.476 339.981 135.486 340.055 131.166C340.203 122.612 340.408 114.072 340.567 105.518C340.949 85.3245 340.935 65.2027 340.656 45.0092C340.553 37.3449 340.51 28.5758 335.953 21.9738C334.369 19.6774 336.13 16.563 338.972 16.563H357.196L358.296 17.6394V134.782C358.296 134.955 358.296 135.127 358.324 135.299Z" fill="#601D1D"/>
<path d="M145.458 58.0983C142.748 58.0983 141.971 54.539 144.403 53.3763C144.403 53.3763 144.418 53.3763 144.433 53.3763C157.238 46.7457 167.699 35.0916 162.439 20.194C152.549 -7.85029 107.951 -2.41079 103.204 25.1742C102.882 27.0831 104.845 28.5758 106.676 27.8581C109.328 26.8104 111.775 26.2794 115.159 27.772C128.419 33.5847 115.775 53.9361 104.2 44.2054C97.0947 38.2347 101.417 22.2607 105.563 15.3717C116.288 -2.45385 144.433 -5.2956 158.893 9.68816C161.34 12.2285 166.468 21.6579 166.468 24.8298V53.4911C166.468 54.8547 167.596 55.974 169.003 55.974H183.581C184.533 55.974 185.412 56.5051 185.837 57.3376L186.233 58.1126H167.567L166.468 59.1889V132.213C166.468 133.189 167.831 137.796 168.505 138.815C169.926 140.982 171.669 141.485 173.471 141.112C175.889 140.609 177.486 143.666 175.669 145.317C170.234 150.254 162.38 152.622 155.861 148.317C150.528 144.786 149.267 136.691 148.887 130.807C147.421 108.647 151.524 81.9517 148.96 60.5813C148.96 60.4952 148.945 60.4089 148.93 60.3228C148.799 59.0599 147.715 58.1126 146.411 58.1126H145.458V58.0983Z" fill="#601D1D"/>
<path d="M855.499 60.6969C852.16 59.3049 848.862 58.4724 845.287 57.9413C844.775 57.8695 844.188 57.7405 843.969 57.2812C843.809 56.9652 843.897 56.5635 844.102 56.2621C844.951 55.0133 846.461 55.2575 847.868 55.2145C849.463 55.1712 851.061 55.2145 852.642 55.3148C855.866 55.5444 859.059 56.1042 862.167 57.0085C868.012 58.702 877.505 62.3619 878.018 69.1934C878.135 70.8438 877.682 72.6094 876.437 73.7288C875.455 74.6331 874.062 75.0206 872.7 74.9488C872.421 74.9342 872.159 74.9057 871.894 74.8627C870.299 74.5755 868.846 73.743 867.602 72.7242C863.207 69.1934 860.848 62.9215 855.485 60.6969H855.499Z" fill="#601D1D"/>
<path d="M849.449 148.346C849.625 148.475 849.756 148.647 849.816 148.863C849.902 149.193 849.756 149.552 849.509 149.796C849.258 150.04 848.908 150.155 848.569 150.198C847.822 150.298 847.03 150.312 846.284 150.298C845.333 150.284 844.364 150.241 843.413 150.169C834.797 149.566 824.278 148.03 817.553 142.375C813.479 138.96 810.859 133.549 811.927 128.411C812.44 125.971 814.154 123.445 816.689 123.273C819.267 123.1 821.275 125.397 822.492 127.636C824.016 130.463 825.933 133.075 828.072 135.472C830.416 138.098 833.053 140.481 835.942 142.533C838.827 144.586 841.875 146.251 845.199 147.341C845.786 147.542 846.387 147.715 847.002 147.858C847.281 147.93 847.589 148.045 847.868 148.088C848.247 148.145 848.614 148.045 848.996 148.131C849.155 148.174 849.318 148.246 849.449 148.346Z" fill="#601D1D"/>
<path d="M880.599 131.812C879.397 134.769 877.668 137.524 875.483 139.878C873.301 142.232 870.914 144.011 868.203 145.504C866.841 146.25 865.42 146.896 863.97 147.456C863.235 147.743 862.489 148.001 861.742 148.231C860.993 148.461 860.247 148.733 859.455 148.762C859.25 148.762 859.059 148.762 858.871 148.705C858.564 148.604 858.284 148.317 858.313 148.001C858.356 147.384 859.675 147.126 860.145 146.911C860.965 146.537 861.757 146.107 862.503 145.619C874.033 138.184 868.556 124.909 860.409 117.302C846.415 104.213 806.156 96.233 820.321 69.2937C822.007 66.0788 824.557 63.3662 827.559 61.285C828.747 60.4528 830.006 59.7206 831.31 59.0892C831.957 58.7736 832.615 58.4721 833.273 58.1995C834.008 57.8981 834.74 57.7257 835.486 57.4961C835.794 57.3958 836.133 57.3094 836.423 57.4388C836.688 57.5536 836.85 57.8117 836.893 58.0989C836.936 58.3858 836.865 58.6588 836.748 58.9169C836.249 60.0796 835.104 60.381 834.213 61.1272C828.072 66.3227 830.387 74.6613 834.577 80.2874C847.646 97.8404 894.032 98.9886 880.627 131.855L880.599 131.812Z" fill="#601D1D"/>
<path d="M761.864 64.9029C762.083 65.9935 761.938 67.185 761.277 68.4622C760.223 70.5002 757.776 71.7489 755.461 71.4332C753.424 71.1606 751.709 69.8258 750.114 68.5483C747.271 66.2665 744.369 63.1949 741.031 61.688C737.689 60.1809 733.5 60.2527 730.084 61.1282C727.652 61.7453 725.367 62.8792 723.391 64.4006C722.129 65.3764 720.226 68.6058 718.38 67.8881C717.719 67.6297 717.352 66.912 717.324 66.2089C717.295 65.5058 717.588 64.8453 717.91 64.2282C720.622 59.162 727.638 55.9042 733.132 54.8563C739.097 53.7081 745.426 54.4112 751.066 56.5785C754.626 57.9421 760.969 60.7407 761.835 64.9171L761.864 64.9029Z" fill="#601D1D"/>
<path d="M85.1092 55.9463C87.0578 55.9463 87.9662 58.2857 86.5303 59.5632C67.396 76.8575 59.5868 125.095 47.69 148.447C45.6534 151.905 44.3787 150.671 42.8696 147.83C30.0644 123.832 21.8012 94.8983 8.64441 71.0594C6.31489 66.8254 3.82417 63.3809 0.630197 60.209C-0.688413 58.8885 0.234615 56.664 2.12462 56.664H30.4162C32.1304 56.664 33.1413 58.5586 32.1449 59.9364C31.1488 61.3142 30.0938 62.7062 29.7568 64.3425C28.321 71.289 30.9144 78.7809 33.4489 85.1819C36.6282 93.2191 40.716 100.869 44.5838 108.605C45.9758 111.389 47.353 114.173 48.6422 117.001C49.2136 118.264 49.7704 119.555 50.2831 120.847C50.9425 122.483 51.0744 124.019 52.1733 125.512C52.3784 125.799 52.6712 126.1 53.023 126.057C53.4186 126.014 53.6089 125.584 53.7408 125.21C55.2647 120.704 56.9056 116.341 57.9897 111.69C58.3706 110.04 58.693 108.404 59.2792 106.811C59.9238 105.06 60.5684 103.323 61.2423 101.586C65.6963 90.119 73.9595 75.4224 66.6047 63.3951C65.7989 62.0891 64.8318 60.8692 63.7329 59.7783C63.6745 59.721 63.6011 59.6635 63.5427 59.6062C62.0336 58.372 62.9565 55.9608 64.9199 55.9608H85.1092V55.9463Z" fill="#601D1D"/>
</g>
</g>
<defs>
<clipPath id="clip0_6080_271">
<rect width="883" height="151" fill="white"/>
</clipPath>
</defs>
</svg>
