<svg width="974" height="377" viewBox="0 0 974 377" fill="none" xmlns="http://www.w3.org/2000/svg">
<g clip-path="url(#clip0_6080_189)">
<mask id="mask0_6080_189" style="mask-type:luminance" maskUnits="userSpaceOnUse" x="0" y="0" width="974" height="377">
<path d="M974 0H0V377H974V0Z" fill="white"/>
</mask>
<g mask="url(#mask0_6080_189)">
<path d="M478.525 234.1L476.228 231.857C476.064 231.693 475.955 231.584 475.845 231.365C474.095 228.356 473.439 224.964 472.838 221.572L471.853 160.407V143.338C471.853 142.791 471.635 142.244 471.252 141.916C470.924 141.533 470.377 141.314 469.83 141.314H450.09C449.488 141.314 448.942 141.587 448.614 141.97C447.957 142.682 447.793 143.885 448.614 144.76C452.715 149.465 453.863 155.483 454.3 162.267C455.285 177.969 455.285 201.056 454.3 216.758C453.972 222.228 452.769 229.997 448.778 234.046C448.778 234.046 448.778 234.046 448.778 234.1C447.848 234.976 447.957 236.289 448.668 237.055C448.996 237.438 449.543 237.656 450.145 237.656H477.212C477.814 237.656 478.361 237.383 478.689 237C479.4 236.234 479.509 234.976 478.634 234.1H478.525ZM130.582 234.538L126.699 230.544C126.699 230.544 126.426 230.271 126.371 230.052C125.059 227.262 123.528 220.423 123.254 217.469V141.642L122.161 140.548H99.7408C99.194 140.548 98.7019 140.767 98.4285 141.15C97.827 141.751 97.7176 142.736 98.3191 143.502C98.4285 143.612 98.4832 143.666 98.5925 143.776C98.7566 143.885 98.8659 143.995 99.03 144.104C99.4674 144.432 99.9049 144.815 100.288 145.198C100.452 145.308 100.561 145.472 100.725 145.581C101.108 145.964 101.491 146.402 101.819 146.949C104.334 150.888 105.373 157.617 105.647 162.213C106.685 177.75 106.631 200.345 105.647 215.937C105.318 221.134 104.006 229.997 100.124 233.936C100.014 234.046 99.8502 234.21 99.7408 234.319C98.8659 235.085 98.9206 236.289 99.5768 237C99.9049 237.328 100.342 237.547 100.889 237.547H129.379C129.379 237.547 129.925 237.492 130.144 237.383C130.254 237.383 130.363 237.273 130.472 237.219C130.582 237.164 130.636 237.055 130.746 237C131.347 236.343 131.457 235.249 130.746 234.483L130.582 234.538Z" fill="#601C1D"/>
<path d="M472.837 221.626C473.438 225.018 474.095 228.41 475.844 231.419C475.954 231.583 476.063 231.748 476.227 231.912L478.524 234.1C479.891 235.358 478.961 237.656 477.102 237.656H450.034C448.175 237.656 447.3 235.358 448.667 234.045C448.667 234.045 448.667 234.045 448.667 233.991C452.659 229.942 453.862 222.173 454.19 216.703C455.229 201.001 455.175 177.914 454.19 162.212C453.753 155.428 452.605 149.465 448.503 144.705C447.3 143.338 448.23 141.259 450.034 141.259H469.775C470.923 141.259 471.798 142.189 471.798 143.283V160.352L472.782 221.517L472.837 221.626Z" fill="#601C1D"/>
<path d="M541.3 237.656H514.506C512.537 237.656 511.717 235.14 513.248 233.991C513.467 233.827 513.685 233.663 513.849 233.444C520.63 225.566 519.482 197.281 519.044 186.558C518.443 172.443 517.896 150.395 501.874 144.87C499.249 143.995 496.46 143.502 493.726 143.83C490.992 144.159 488.532 145.253 485.962 146.292C485.633 146.402 485.305 146.566 484.977 146.566C484.649 146.566 484.266 146.456 484.048 146.128C483.282 144.925 487.164 142.9 488.039 142.353C490.555 140.821 493.18 139.727 496.078 139.29C499.195 138.797 502.311 138.852 505.428 139.18C543.925 142.9 534.847 190.99 536.707 216.758C537.199 223.651 538.566 229.559 542.831 234.21C544.089 235.577 543.159 237.711 541.355 237.711L541.3 237.656Z" fill="#601C1D"/>
<path d="M388.955 236.343C387.698 236.835 386.495 237.218 385.182 237.492C377.089 239.079 368.832 237.109 361.888 232.787C361.505 232.513 361.067 232.24 360.685 231.966C359.919 231.419 359.153 230.817 358.388 230.161C357.622 229.504 356.911 228.848 356.201 228.137C351.279 223.158 347.451 216.484 345.647 208.223C341.272 188.199 347.725 166.097 340.179 147.277C340.069 147.058 339.96 146.839 339.796 146.62L338.101 144.705C337.445 143.94 337.445 142.955 337.882 142.189C338.265 141.642 338.866 141.259 339.632 141.259H359.481C359.919 141.259 360.302 141.368 360.63 141.587C361.177 141.97 361.505 142.572 361.559 143.283L362.27 198.977C362.38 207.511 364.075 217.523 369.16 224.581C375.011 232.732 385.893 234.483 394.752 230.27C395.134 230.106 395.572 229.887 396.009 229.833C396.447 229.778 396.939 230.052 397.103 230.435C397.376 231.31 396.009 232.185 395.462 232.623C394.533 233.334 393.603 233.936 392.619 234.483C391.471 235.14 390.268 235.687 389.065 236.179L388.955 236.343Z" fill="#601C1D"/>
<path d="M432.427 237C432.099 237.383 431.552 237.656 430.95 237.656C428.982 237.656 427.013 237.656 425.045 237.656C422.256 237.656 419.358 237.82 416.733 236.671C415.038 235.905 413.561 234.702 412.413 233.225C411.101 231.583 410.499 230.052 410.116 228.027C409.241 223.486 408.695 218.891 408.476 214.295C408.202 209.098 408.585 203.901 408.749 198.703C409.187 186.503 409.46 174.248 408.257 162.048C407.765 157.343 407.437 151.654 404.976 147.496C404.812 147.222 404.648 146.949 404.484 146.675C404.32 146.401 404.156 146.183 403.937 145.964C403.773 145.745 403.554 145.526 403.39 145.362C403.226 145.143 403.008 144.979 402.844 144.815C402.023 144.049 402.023 142.955 402.516 142.189C402.898 141.642 403.5 141.259 404.265 141.259H424.279C424.881 141.259 425.373 141.478 425.756 141.861C426.138 142.244 426.357 142.736 426.357 143.283V218.782C426.357 220.477 428.708 228.301 429.638 230.216C430.349 231.693 431.169 232.732 432.044 233.608C432.153 233.717 432.263 233.881 432.427 233.991C432.536 234.1 432.645 234.209 432.7 234.319C432.81 234.428 432.864 234.592 432.919 234.702C433.247 235.468 433.083 236.343 432.536 236.89L432.427 237Z" fill="#601C1D"/>
<path d="M275.981 234.319L273.739 232.131C273.739 232.131 273.521 231.912 273.411 231.748C266.412 220.314 270.568 184.37 269.748 169.544C269.091 157.562 266.74 147.605 254.546 142.846C253.234 142.353 251.921 141.861 250.609 141.478C250.609 141.478 250.554 141.478 250.5 141.478C249.898 141.314 249.242 141.15 248.64 140.986C243.664 139.837 238.524 139.508 233.439 140.001C232.728 140.056 232.017 140.165 231.306 140.274C227.424 140.767 223.541 141.697 219.987 143.448C219.495 143.721 218.948 143.995 218.456 144.268C215.229 146.019 212.277 148.207 209.597 150.779C207.191 153.022 203.801 156.468 202.489 160.079C201.778 161.994 201.723 163.963 202.653 165.878C203.254 167.082 204.402 168.121 205.769 168.395C206.48 168.504 207.137 168.45 207.793 168.231C209.378 167.684 210.8 166.207 211.894 164.784C213.261 162.979 214.464 161.064 215.612 159.149C215.612 159.149 215.612 159.149 215.612 159.094C217.526 155.812 219.276 152.475 221.682 149.52C221.901 149.247 222.119 149.028 222.283 148.754C222.502 148.535 222.721 148.262 222.885 148.043C223.213 147.715 223.541 147.387 223.869 147.058L224.088 146.894C224.088 146.894 224.307 146.675 224.416 146.621C224.744 146.292 225.127 145.964 225.51 145.691C229.447 142.572 234.15 141.369 239.126 141.916C239.454 141.916 239.727 142.025 240.055 142.025C240.438 142.08 240.766 142.135 241.149 142.189C253.234 144.651 251.484 163.854 251.156 173.756C251.156 174.522 250.664 175.179 249.898 175.398C231.361 181.361 199.59 186.285 193.466 207.457C186.467 231.638 219.987 245.097 238.196 234.483C244.211 230.982 245.687 227.262 249.515 222.338C250.007 221.736 249.515 220.97 251.21 221.408C250.554 227.809 254.382 236.289 261.163 237.602C264.881 238.313 270.021 237.602 274.614 237.438C276.2 237.438 276.966 235.468 275.817 234.319H275.981ZM251.374 216.648C251.374 218.618 245.414 226.386 243.61 228.028C228.681 241.705 206.48 232.514 208.722 211.615C210.691 193.342 232.618 182.017 249.078 177.914C250.226 177.641 251.374 178.461 251.374 179.665V216.703V216.648Z" fill="#601C1D"/>
<path d="M636.72 234.318L634.478 232.13C634.368 232.021 634.259 231.911 634.15 231.747C633.384 230.489 632.728 228.902 632.181 227.097C632.126 226.933 632.072 226.768 632.017 226.55C628.08 211.833 631.197 182.618 630.486 169.543C630.486 169.269 630.486 169.05 630.486 168.777C629.939 159.914 628.353 152.145 622.284 146.948C622.12 146.784 621.956 146.674 621.791 146.51C620.151 145.143 618.182 143.994 615.831 143.009C615.667 142.954 615.503 142.9 615.339 142.79C614.027 142.298 612.714 141.805 611.402 141.422C611.402 141.422 611.347 141.422 611.292 141.422C609.816 140.985 608.285 140.656 606.754 140.383C606.59 140.383 606.371 140.328 606.207 140.273C602.27 139.617 598.223 139.508 594.286 139.945C593.575 140 592.865 140.109 592.154 140.219C588.271 140.711 584.389 141.641 580.834 143.392C580.342 143.665 579.796 143.939 579.303 144.213C577.335 145.307 575.476 146.51 573.726 147.878C572.577 148.753 571.484 149.683 570.39 150.723C568.203 152.857 565.086 155.92 563.61 159.258C563.5 159.531 563.391 159.75 563.281 160.023C562.571 161.938 562.516 163.908 563.446 165.823C564.047 167.026 565.195 168.066 566.562 168.339C567.273 168.449 567.929 168.394 568.586 168.175C568.586 168.175 568.586 168.175 568.64 168.175C570.226 167.628 571.593 166.206 572.687 164.783C574.054 162.978 575.257 161.063 576.405 159.148C576.405 159.148 576.405 159.148 576.405 159.093C578.319 155.811 580.069 152.474 582.475 149.519C582.912 149.027 583.295 148.535 583.733 148.042C584.061 147.714 584.389 147.386 584.717 147.057L584.936 146.893C584.936 146.893 585.154 146.674 585.264 146.62C585.264 146.62 585.264 146.62 585.318 146.565C585.647 146.291 585.975 145.963 586.357 145.69C590.568 142.407 595.544 141.204 600.903 142.024C601.286 142.079 601.614 142.134 601.996 142.188C602.27 142.188 602.489 142.298 602.707 142.352C602.707 142.352 602.707 142.352 602.762 142.352C605.113 143.009 606.918 144.377 608.285 146.182C613.261 152.966 612.167 166.041 611.949 173.701C611.949 173.81 611.949 173.974 611.894 174.084C611.785 174.685 611.347 175.178 610.691 175.397C608.394 176.163 605.824 176.874 603.2 177.64C603.2 177.64 603.145 177.64 603.09 177.64C584.553 182.892 559.618 188.91 554.259 207.456C547.26 231.583 580.616 245.041 598.88 234.592C598.88 234.592 598.989 234.592 598.989 234.537C605.004 231.036 606.48 227.316 610.308 222.392C610.746 221.845 610.418 221.243 611.457 221.352C611.621 221.352 611.785 221.352 612.003 221.462C611.347 227.863 615.175 236.343 621.956 237.656C622.94 237.82 623.979 237.929 625.072 237.929C628.189 238.039 631.798 237.601 635.134 237.491C635.243 237.491 635.298 237.491 635.407 237.491C636.993 237.491 637.759 235.522 636.61 234.373L636.72 234.318ZM604.348 228.027C589.42 241.704 567.219 232.513 569.461 211.614C571.429 193.341 593.357 182.016 609.816 177.913C610.964 177.64 612.113 178.46 612.113 179.664V216.702C612.113 218.672 606.152 226.44 604.348 228.081V228.027Z" fill="#601C1D"/>
<path d="M321.039 222.064C321.367 224.033 322.625 228.027 323.609 230.051C323.773 230.434 323.992 230.708 324.265 231.036L324.703 231.528C326.89 233.826 325.25 237.601 322.078 237.601H301.408C298.237 237.601 296.596 233.771 298.784 231.474C299.057 231.145 299.33 230.817 299.494 230.379C301.244 226.276 302.502 222.173 302.557 217.742C302.721 208.933 302.885 200.18 303.103 191.372C303.486 170.637 303.486 149.957 303.213 129.222C303.103 121.344 303.049 112.317 298.51 105.588C296.924 103.236 298.674 100.062 301.518 100.062H319.836L320.93 101.157V221.462C320.93 221.462 320.93 221.79 320.93 222.009L321.039 222.064Z" fill="#601C1D"/>
<path d="M146.275 142.791C144.525 142.791 143.432 141.149 143.869 139.508C144.306 137.757 147.205 136.773 148.626 136.061C152.509 134.147 154.313 133.162 156.227 128.949C160.547 119.32 160.766 107.831 156.555 98.148C154.641 93.7165 151.47 89.8869 147.205 87.4797C145.181 86.3308 142.994 85.5649 140.752 85.1272C125.55 82.0088 109.091 92.7318 104.717 107.394C104.06 109.527 104.115 113.029 107.341 111.716C110.021 110.622 112.481 110.075 115.872 111.606C129.214 117.57 116.473 138.469 104.881 128.511C99.9045 124.244 100.725 115.983 101.982 110.293C104.935 96.9444 114.669 85.7837 128.339 82.8841C139.002 80.6411 150.54 84.1425 157.813 92.4035C162.461 97.6556 164.812 104.549 166.179 111.278C167.984 120.032 167.492 129.113 167.492 138.031C167.492 139.453 168.64 140.602 170.062 140.602H184.717C185.701 140.602 186.576 141.149 187.013 142.025L187.396 142.845H168.64L167.546 143.939V218.946C167.546 219.93 168.913 224.69 169.57 225.729C170.991 227.973 172.741 228.465 174.546 228.082C177.006 227.535 178.592 230.708 176.733 232.404C171.265 237.492 163.391 239.899 156.829 235.468C151.47 231.857 150.212 223.541 149.829 217.468C148.353 194.709 152.454 167.3 149.884 145.362C149.884 145.252 149.884 145.198 149.884 145.088C149.775 143.775 148.681 142.845 147.369 142.845H146.439L146.275 142.791Z" fill="#601C1D"/>
<path d="M820.999 145.471C817.663 144.049 814.328 143.173 810.719 142.626C810.227 142.571 809.625 142.407 809.406 141.97C809.242 141.641 809.352 141.258 809.516 140.93C810.391 139.672 811.867 139.891 813.289 139.836C814.875 139.836 816.515 139.836 818.101 139.945C821.327 140.164 824.553 140.766 827.67 141.696C833.576 143.447 843.091 147.222 843.637 154.224C843.747 155.92 843.309 157.726 842.052 158.875C841.067 159.805 839.646 160.188 838.279 160.133C838.005 160.133 837.732 160.133 837.458 160.024C835.873 159.75 834.396 158.875 833.138 157.835C828.709 154.224 826.358 147.769 820.944 145.471H820.999Z" fill="#601C1D"/>
<path d="M814.875 235.467C814.875 235.467 815.203 235.796 815.258 236.015C815.367 236.343 815.203 236.726 814.93 236.945C814.656 237.163 814.328 237.328 814 237.382C813.235 237.492 812.469 237.492 811.704 237.492C810.719 237.492 809.79 237.437 808.805 237.382C800.166 236.78 789.557 235.194 782.777 229.395C778.676 225.893 776.051 220.313 777.144 215.061C777.637 212.544 779.386 209.973 781.956 209.809C784.527 209.645 786.55 211.997 787.808 214.295C789.339 217.195 791.252 219.875 793.44 222.337C795.791 225.018 798.471 227.48 801.369 229.614C804.267 231.747 807.329 233.443 810.665 234.537C811.266 234.756 811.868 234.92 812.469 235.084C812.743 235.139 813.071 235.249 813.344 235.303C813.727 235.358 814.11 235.303 814.492 235.303C814.656 235.303 814.82 235.413 814.93 235.522L814.875 235.467Z" fill="#601C1D"/>
<path d="M846.207 218.508C845.004 221.572 843.254 224.362 841.067 226.769C838.88 229.177 836.474 231.037 833.74 232.568C832.373 233.334 830.951 233.991 829.475 234.593C828.764 234.866 827.998 235.14 827.233 235.413C826.467 235.687 825.701 235.96 824.936 235.96C824.717 235.96 824.553 235.96 824.334 235.906C824.006 235.796 823.733 235.523 823.788 235.195C823.788 234.538 825.155 234.319 825.647 234.1C826.467 233.717 827.287 233.28 827.998 232.787C839.591 225.128 834.068 211.505 825.865 203.682C811.812 190.224 771.293 182.017 785.565 154.389C787.26 151.107 789.83 148.317 792.837 146.183C794.04 145.308 795.298 144.596 796.61 143.94C797.267 143.612 797.923 143.283 798.579 143.01C799.29 142.682 800.055 142.517 800.821 142.299C801.149 142.189 801.477 142.08 801.751 142.244C802.024 142.353 802.188 142.627 802.243 142.9C802.297 143.174 802.243 143.447 802.079 143.721C801.587 144.925 800.438 145.198 799.509 146.019C793.33 151.38 795.681 159.915 799.891 165.714C813.015 183.768 859.659 184.917 846.207 218.672V218.508Z" fill="#601C1D"/>
<path d="M85.5777 140.548C87.5463 140.548 88.4759 142.955 86.9995 144.268C67.7513 162.049 59.8771 211.56 47.9563 235.577C45.9331 239.134 44.6207 237.875 43.0896 234.976C30.2393 210.357 21.8729 180.595 8.69449 156.14C6.34315 151.818 3.82777 148.262 0.656199 144.979C-0.656174 143.612 0.273424 141.314 2.13262 141.314H30.5674C32.3172 141.314 33.3015 143.283 32.3172 144.706C31.3329 146.128 30.2393 147.551 29.9112 149.247C28.4895 156.359 31.0595 164.073 33.6296 170.638C36.8558 178.899 40.957 186.777 44.8394 194.71C46.2612 197.555 47.6282 200.4 48.9406 203.354C49.5421 204.667 50.0889 205.98 50.5811 207.293C51.2373 208.989 51.3466 210.521 52.495 212.107C52.7137 212.381 52.9871 212.709 53.3699 212.654C53.7527 212.654 53.9714 212.162 54.0807 211.779C55.6119 207.129 57.2523 202.697 58.346 197.883C58.7287 196.187 59.0568 194.491 59.6583 192.85C60.3145 191.044 60.9707 189.294 61.6269 187.488C66.1108 175.726 74.4225 160.626 67.0404 148.262C66.2202 146.894 65.2359 145.69 64.1423 144.542C64.0876 144.487 64.0329 144.432 63.9235 144.377C62.3924 143.119 63.322 140.603 65.2906 140.603H85.5777V140.548Z" fill="#601C1D"/>
<path d="M757.841 116.366C756.966 114.451 755.326 112.81 753.412 111.771C752.974 111.552 752.537 111.333 752.099 111.169C752.099 111.169 751.662 111.005 751.388 110.95C750.24 110.622 748.982 110.458 747.834 110.567C739.03 111.333 735.202 122.931 742.038 128.457C743.022 129.223 744.006 129.825 744.991 130.208C745.428 130.372 745.811 130.481 746.248 130.59C746.686 130.7 747.178 130.755 747.615 130.809C754.724 131.521 761.341 124.19 757.841 116.366Z" fill="#601C1D"/>
<path d="M682.27 234.045L680.575 232.459C679.809 231.693 679.262 230.763 678.825 229.778C674.724 220.86 674.833 185.737 675.763 174.358V143.119C675.653 142.079 674.778 141.259 673.739 141.259H653.944C652.14 141.259 651.265 143.392 652.468 144.705C656.733 149.629 657.772 155.866 658.21 162.869C659.139 178.406 659.139 200.345 658.21 215.882C657.882 221.298 656.952 226.714 654.382 231.474C654.273 231.638 654.163 231.802 653.999 231.966L651.976 234.045C650.718 235.358 651.648 237.547 653.452 237.547H680.848C682.707 237.547 683.637 235.249 682.27 233.991V234.045Z" fill="#601C1D"/>
<path d="M767.301 234.1L764.567 231.365C764.567 231.365 764.294 231.091 764.239 230.927C762.708 228.027 760.521 219.438 760.521 216.648V143.338C760.521 142.791 760.302 142.244 759.919 141.915C759.591 141.532 759.044 141.313 758.443 141.313H738.703C738.101 141.313 737.554 141.587 737.226 141.97C736.57 142.681 736.406 143.885 737.226 144.76C741.382 149.465 742.476 155.483 742.913 162.267C743.897 177.969 743.952 201.056 742.913 216.757C742.585 222.228 741.382 229.997 737.39 234.045C737.39 234.045 737.39 234.045 737.336 234.045C736.515 234.811 736.515 235.905 737.007 236.726C737.336 237.273 737.937 237.656 738.757 237.656H765.934C766.536 237.656 767.083 237.383 767.411 237C768.122 236.234 768.231 234.975 767.411 234.1H767.301Z" fill="#601C1D"/>
<path d="M726.837 149.738C727.055 150.833 726.891 152.091 726.235 153.404C725.196 155.483 722.735 156.796 720.384 156.468C718.306 156.194 716.611 154.826 715.025 153.513C712.182 151.161 709.229 147.988 705.893 146.456C702.558 144.924 698.292 144.979 694.902 145.854C692.441 146.511 690.145 147.659 688.176 149.191C686.918 150.176 685.005 153.513 683.145 152.747C682.489 152.474 682.106 151.763 682.106 151.051C682.106 150.34 682.38 149.629 682.708 149.027C685.442 143.83 692.496 140.493 698.019 139.398C704.034 138.195 710.377 138.961 716.064 141.149C719.618 142.572 726.016 145.416 726.891 149.738H726.837Z" fill="#601C1D"/>
<path d="M687.027 93.169L684.731 90.3788C686.426 88.9564 687.574 87.8622 688.066 87.0963C688.559 86.3303 688.613 85.5097 688.231 84.7438C687.848 83.9231 686.973 82.6648 685.551 80.9688L669.857 61.8207C668.436 60.1247 667.397 58.9758 666.686 58.4287C665.975 57.8816 665.209 57.8269 664.334 58.1552C663.459 58.4834 662.202 59.3588 660.452 60.7812L658.155 57.991L673.904 45.025C678.114 41.5783 682.27 39.3353 686.426 38.3505C690.527 37.3657 694.464 37.5299 698.128 38.8976C701.792 40.2653 705.127 42.7272 708.08 46.338C712.619 51.8089 714.423 57.5534 713.548 63.5167C712.673 69.4799 709.01 75.115 702.448 80.4765L687.082 93.1142L687.027 93.169ZM699.987 76.811C704.58 73.036 707.151 68.8781 707.533 64.4467C707.916 60.0153 706.33 55.5291 702.612 51.043C698.73 46.338 694.574 43.7667 690.144 43.3837C685.715 43.0008 681.231 44.642 676.802 48.3623L671.06 53.1219L694.355 81.4612L699.987 76.811Z" fill="#601C1D"/>
<path d="M712.564 25.2747C711.471 24.8918 710.705 24.1806 710.158 23.0317C709.611 21.8828 709.502 20.7886 709.885 19.6944C710.268 18.6002 711.033 17.7796 712.181 17.2325C713.275 16.6854 714.369 16.6307 715.462 16.959C716.556 17.3419 717.376 18.1079 717.923 19.2568C718.47 20.3509 718.525 21.4451 718.196 22.5393C717.814 23.6335 717.103 24.3994 715.954 24.9465C714.806 25.4936 713.713 25.603 712.619 25.22L712.564 25.2747ZM723.774 60.9997C725.688 60.0697 726.946 59.3038 727.547 58.702C728.149 58.1002 728.367 57.3342 728.149 56.5136C727.985 55.6383 727.383 54.2158 726.399 52.1916L720.329 39.7179C719.345 37.6937 718.579 36.326 718.032 35.6695C717.486 35.013 716.775 34.7394 715.9 34.7941C715.025 34.8488 713.658 35.3959 711.744 36.326L710.268 33.2623L721.313 27.9008L731.867 49.5656C732.851 51.5898 733.617 52.9028 734.164 53.5593C734.711 54.2158 735.421 54.5441 736.296 54.4347C737.117 54.3252 738.538 53.8329 740.452 52.9028L741.983 56.0212L725.305 64.1182L723.774 60.9997Z" fill="#601C1D"/>
<path d="M750.787 51.4808C747.889 50.7149 745.428 49.2377 743.296 47.0494C741.163 44.861 739.687 42.0161 738.757 38.5695C737.827 35.1228 737.718 31.895 738.429 28.8313C739.085 25.7676 740.507 23.1962 742.585 21.0079C744.663 18.8742 747.342 17.3424 750.568 16.5217C753.685 15.7011 756.583 15.7011 759.263 16.5217C761.942 17.3424 764.239 18.8195 766.098 21.0079C767.957 23.1962 769.324 25.9317 770.199 29.1048C770.418 29.9801 770.582 30.6367 770.637 31.129L745.155 37.913C746.248 41.5785 748.053 44.2045 750.568 45.7911C753.084 47.3776 755.982 47.7059 759.317 46.8305C761.888 46.174 763.801 44.9157 765.059 43.2197C766.317 41.469 767.028 39.7731 767.192 38.0224L771.676 36.8188C771.676 38.6789 771.348 40.5937 770.527 42.5085C769.707 44.478 768.395 46.2287 766.59 47.87C764.786 49.5113 762.489 50.6602 759.755 51.3714C756.583 52.192 753.576 52.2467 750.678 51.4808H750.787ZM763.692 28.8313C762.927 25.9317 761.45 23.7433 759.208 22.1568C756.966 20.5702 754.451 20.1872 751.607 20.9532C748.928 21.6644 746.959 23.1962 745.538 25.6034C744.17 27.9559 743.733 30.8008 744.225 34.0286L763.692 28.8313Z" fill="#601C1D"/>
<path d="M804.704 45.5174C802.845 44.478 801.15 43.2197 799.564 41.7425C798.525 40.8125 797.814 40.3748 797.486 40.3201C796.994 40.3201 796.72 40.7577 796.666 41.7425L796.338 45.1892L792.182 44.8062L793.549 29.8706L797.65 30.2536C797.978 32.3326 798.798 34.3021 800.056 36.1075C801.368 37.9129 803.009 39.4447 804.977 40.6483C807.001 41.8519 809.188 42.5084 811.594 42.7273C814.273 42.9461 816.461 42.5631 818.101 41.4143C819.742 40.3201 820.671 38.6788 820.835 36.5451C820.999 34.7945 820.562 33.3173 819.577 32.059C818.593 30.8007 817.281 29.7612 815.695 28.8859C814.109 28.0105 811.922 27.0805 809.188 25.9863C805.907 24.6186 803.282 23.415 801.368 22.3755C799.454 21.336 797.814 19.8589 796.556 18.0535C795.244 16.2481 794.752 13.9503 794.97 11.2696C795.299 7.38523 796.994 4.43095 800.001 2.46142C803.009 0.437188 806.782 -0.328739 811.266 0.0542247C814.109 0.32777 816.351 0.929569 818.046 1.85962C819.742 2.84439 821.273 3.99328 822.64 5.361C823.46 6.18164 824.061 6.61931 824.389 6.67402C824.882 6.67402 825.155 6.12693 825.264 4.97804L825.538 2.13317L829.694 2.51613L828.327 17.6158L824.225 17.2329C823.843 13.8409 822.53 10.996 820.288 8.69825C818.046 6.40047 815.258 5.14216 811.922 4.81391C809.188 4.54037 806.836 4.97804 804.923 6.07222C803.009 7.1664 801.915 8.75296 801.751 10.8866C801.642 12.3638 802.024 13.6221 802.954 14.7162C803.884 15.8104 805.032 16.6858 806.508 17.4517C807.93 18.1629 809.953 19.0383 812.578 20.023C816.023 21.3907 818.812 22.6491 820.89 23.7979C822.968 24.9468 824.718 26.5334 826.085 28.5029C827.452 30.5272 828.053 32.9891 827.78 35.9981C827.452 39.8824 825.921 42.8367 823.186 44.9156C820.452 46.9946 816.734 47.8152 812.031 47.4322C809.078 47.1587 806.618 46.5022 804.759 45.4627L804.704 45.5174Z" fill="#601C1D"/>
<path d="M826.905 60.2342C825.866 58.5383 825.756 56.6782 826.467 54.7633C826.795 53.888 827.287 53.0674 827.889 52.3561C828.49 51.6449 829.201 51.0978 830.022 50.7149L835.873 52.9032L834.888 55.584C833.904 55.201 833.084 55.1463 832.482 55.4198C831.826 55.6934 831.389 56.1858 831.115 56.897C830.787 57.7176 830.842 58.4288 831.279 59.0306C831.662 59.6324 832.373 60.1795 833.357 60.5078C834.341 60.8908 835.326 60.9455 836.31 60.7266C837.294 60.5078 838.443 59.8513 839.755 58.8118C841.067 57.7723 842.763 56.1858 844.786 54.0521L843.091 27.3541C842.927 24.8375 842.817 23.1415 842.653 22.4303C842.544 21.6644 842.216 21.0626 841.778 20.5702C841.341 20.0778 840.356 19.5854 838.989 19.093L840.192 15.9199L856.761 22.1568L855.558 25.3299C853.48 24.564 852.004 24.1263 851.184 24.0716C850.363 24.0169 849.762 24.3998 849.488 25.1657C849.215 25.877 849.106 27.4088 849.215 29.7613L850.035 48.4718L850.363 48.5812L863.268 35.0681C864.854 33.3721 865.838 32.1138 866.112 31.4026C866.385 30.6367 866.221 29.9801 865.565 29.4878C864.909 28.9407 863.542 28.2842 861.464 27.5182L862.667 24.3451L877.814 30.0896L876.611 33.2627C875.244 32.7703 874.205 32.4968 873.494 32.5515C872.783 32.5515 872.127 32.8797 871.58 33.3174C870.979 33.8098 869.83 34.9587 868.08 36.7641L850.418 55.0369C847.411 58.1553 844.895 60.4531 842.762 61.9849C840.685 63.5168 838.825 64.3921 837.185 64.7204C835.544 64.9939 833.849 64.8298 831.99 64.1186C829.693 63.2432 827.998 61.9849 826.959 60.2342H826.905Z" fill="#601C1D"/>
<path d="M875.407 69.3703C874.532 68.0026 873.822 66.5254 873.275 64.9389C872.947 63.9541 872.619 63.3523 872.4 63.1882C872.017 62.9146 871.634 63.0788 871.197 63.6806L869.775 65.7048L866.713 63.5711L873.111 54.3253L876.282 56.5137C875.845 57.772 875.681 59.1944 875.845 60.781C876.009 62.3675 876.501 63.9541 877.321 65.4859C878.141 67.0178 879.344 68.3308 880.876 69.3703C882.571 70.5739 884.157 71.121 885.633 71.0663C887.109 71.0116 888.258 70.3551 889.133 69.0967C889.844 68.0573 890.117 66.9631 889.898 65.8142C889.679 64.6653 889.242 63.5711 888.476 62.477C887.766 61.4375 886.672 60.015 885.196 58.2644C883.446 56.1854 882.079 54.38 881.094 52.9029C880.165 51.4257 879.618 49.8392 879.399 48.0885C879.235 46.3378 879.782 44.5871 880.985 42.7817C882.735 40.2651 884.977 38.9521 887.82 38.7879C890.609 38.6238 893.452 39.4992 896.351 41.5234C898.1 42.727 899.358 43.9853 900.178 45.1889C900.999 46.3925 901.6 47.7602 902.092 49.2374C902.202 49.5656 902.366 49.8392 902.475 50.1674C902.584 50.441 902.694 50.6598 902.803 50.7145C903.131 50.9333 903.569 50.7145 903.951 50.1674L905.1 48.5261L908.107 50.6598L901.655 59.9603L898.483 57.772C899.413 55.4195 899.577 53.1764 898.921 50.9881C898.265 48.7997 896.897 46.9943 894.874 45.5719C893.179 44.423 891.593 43.8212 890.062 43.8212C888.531 43.8212 887.383 44.423 886.508 45.6266C885.578 46.9943 885.469 48.4167 886.234 49.9486C887 51.4804 888.367 53.45 890.39 55.8572C892.195 58.0455 893.562 59.9056 894.546 61.4375C895.53 62.9693 896.132 64.6653 896.296 66.5254C896.515 68.3855 895.913 70.1909 894.656 72.1057C892.906 74.6224 890.664 75.9354 887.875 76.2089C885.086 76.4278 882.243 75.5524 879.344 73.5282C877.485 72.2152 876.118 70.9021 875.243 69.5344L875.407 69.3703Z" fill="#601C1D"/>
<path d="M898.374 85.7284C898.374 83.3212 899.632 80.9687 901.983 78.671L917.075 64.1184L912.755 59.6322L915.326 57.1703C916.857 58.7569 918.169 59.7416 919.208 60.1246C920.247 60.5076 921.341 60.3981 922.379 59.7963C923.473 59.1945 924.895 57.9909 926.809 56.1855L930.308 59.851L924.129 65.8143L930.582 72.5435L927.738 75.279L921.286 68.5498L906.194 83.0477C904.827 84.3607 904.061 85.6737 903.842 86.932C903.623 88.1903 904.061 89.3939 905.1 90.4334C906.194 91.5823 907.397 91.9653 908.764 91.6917C910.131 91.4182 911.771 90.324 913.794 88.3545L915.435 86.7679L918.169 89.6128L916.529 91.1993C913.576 94.0442 910.896 95.5761 908.49 95.7949C906.084 96.0684 903.788 95.029 901.6 92.7859C899.413 90.4881 898.319 88.1356 898.319 85.7284H898.374Z" fill="#601C1D"/>
<path d="M915.38 106.518C915.271 103.563 915.982 100.719 917.458 98.0925C918.934 95.4664 921.231 93.1687 924.239 91.3085C927.246 89.4484 930.308 88.409 933.48 88.1901C936.652 87.9713 939.495 88.5184 942.174 89.9408C944.854 91.3085 947.041 93.4422 948.791 96.2871C950.486 99.0225 951.361 101.813 951.361 104.603C951.361 107.393 950.596 110.019 949.01 112.481C947.424 114.943 945.237 117.022 942.448 118.772C941.682 119.265 941.081 119.593 940.643 119.812L926.809 97.3812C923.582 99.4602 921.614 101.977 920.848 104.822C920.083 107.667 920.575 110.566 922.379 113.466C923.746 115.709 925.496 117.186 927.52 117.897C929.543 118.608 931.402 118.772 933.097 118.444L935.503 122.383C933.753 122.985 931.84 123.149 929.707 122.93C927.574 122.712 925.496 122 923.473 120.742C921.45 119.484 919.645 117.624 918.114 115.216C916.419 112.426 915.489 109.581 915.38 106.572V106.518ZM940.807 112.372C943.323 110.785 945.018 108.706 945.893 106.135C946.768 103.563 946.385 100.992 944.854 98.4754C943.432 96.1229 941.354 94.6458 938.675 94.044C935.995 93.3875 933.207 93.8252 930.254 95.2476L940.807 112.372Z" fill="#601C1D"/>
<path d="M933.207 127.526C933.644 129.605 934.136 131.027 934.574 131.739C935.011 132.45 935.667 132.833 936.542 132.888C937.417 132.888 938.948 132.669 941.136 132.176L954.697 129.167C956.939 128.675 958.415 128.237 959.181 127.854C959.946 127.471 960.384 126.87 960.493 125.994C960.602 125.119 960.493 123.696 960.001 121.563L963.337 120.852L965.961 132.723L959.728 134.091C961.806 134.529 963.719 135.459 965.469 136.991C967.219 138.523 968.367 140.492 968.914 143.009C969.461 145.58 969.297 147.933 968.367 150.011C967.438 152.09 965.907 153.732 963.829 154.935C966.18 155.373 968.258 156.412 970.063 158.054C971.867 159.695 973.07 161.883 973.672 164.619C974.437 168.12 973.836 171.184 971.812 173.7C969.789 176.217 966.454 178.022 961.696 179.062L951.963 181.196C949.775 181.688 948.299 182.126 947.533 182.509C946.768 182.892 946.276 183.493 946.221 184.369C946.166 185.244 946.276 186.667 946.768 188.745L943.378 189.511L939.495 171.895L942.885 171.129C943.323 173.099 943.76 174.357 944.198 175.014C944.635 175.67 945.292 175.998 946.112 175.998C946.932 175.998 948.518 175.779 950.705 175.287L958.853 173.482C966.563 171.786 969.898 168.558 968.86 163.743C968.313 161.172 966.727 159.367 964.212 158.327C961.696 157.288 958.361 157.178 954.205 158.108L947.26 159.64C945.018 160.133 943.542 160.57 942.776 160.899C942.011 161.227 941.573 161.829 941.464 162.595C941.354 163.36 941.464 164.728 941.956 166.698L938.566 167.464L934.738 150.23L938.128 149.464C938.566 151.434 939.003 152.747 939.441 153.403C939.878 154.06 940.534 154.443 941.409 154.443C942.284 154.443 943.815 154.224 946.002 153.732L954.095 151.926C961.806 150.23 965.141 147.002 964.102 142.188C963.555 139.617 961.97 137.811 959.454 136.717C956.884 135.623 953.549 135.514 949.447 136.444L942.503 137.975C940.261 138.468 938.784 138.906 938.019 139.234C937.253 139.617 936.816 140.164 936.706 140.93C936.597 141.696 936.706 143.063 937.199 145.033L933.808 145.799L929.926 128.183L933.316 127.417L933.207 127.526Z" fill="#601C1D"/>
<path d="M941.245 198.211C942.995 195.804 945.292 194.053 948.135 192.849C950.979 191.646 954.15 191.317 957.65 191.7C961.204 192.083 964.267 193.178 966.837 194.928C969.407 196.679 971.321 198.922 972.578 201.657C973.836 204.393 974.219 207.402 973.891 210.739C973.508 213.967 972.469 216.648 970.719 218.836C968.969 221.024 966.782 222.611 964.048 223.596C961.314 224.526 958.306 224.854 955.025 224.471C954.15 224.362 953.44 224.252 953.002 224.143L956.01 197.937C952.182 197.609 949.065 198.32 946.714 200.071C944.362 201.876 942.941 204.448 942.558 207.84C942.23 210.466 942.667 212.709 943.815 214.514C944.964 216.319 946.331 217.632 947.862 218.398L947.315 222.994C945.565 222.392 943.925 221.298 942.394 219.876C940.863 218.398 939.66 216.538 938.839 214.295C938.019 212.052 937.746 209.481 938.074 206.636C938.457 203.408 939.496 200.563 941.245 198.156V198.211ZM957.595 218.508C960.548 218.836 963.173 218.289 965.47 216.757C967.766 215.225 969.024 213.037 969.352 210.137C969.68 207.402 968.969 204.94 967.274 202.806C965.579 200.673 963.118 199.25 959.892 198.539L957.595 218.563V218.508Z" fill="#601C1D"/>
<path d="M930.965 245.261C933.317 243.948 935.941 243.346 938.839 243.51C941.792 243.674 944.8 244.549 947.971 246.191C951.143 247.832 953.658 249.801 955.463 252.099C957.322 254.397 958.361 256.859 958.689 259.54C958.963 262.166 958.47 264.792 957.103 267.418C955.846 269.88 954.151 271.849 952.073 273.217C949.995 274.585 947.753 275.351 945.292 275.46L951.635 278.688C953.604 279.727 955.025 280.329 955.9 280.493C956.775 280.712 957.486 280.493 958.142 279.891C958.744 279.29 959.564 278.086 960.548 276.171L963.665 277.758L958.033 288.7L926.7 272.56C924.677 271.521 923.255 270.919 922.435 270.7C921.615 270.481 920.904 270.7 920.247 271.247C919.646 271.849 918.826 273.053 917.842 274.968L914.725 273.381L920.302 262.549L925.716 265.339C924.513 263.369 923.802 261.181 923.638 258.719C923.474 256.257 924.075 253.74 925.442 251.114C926.809 248.434 928.669 246.464 930.965 245.151V245.261ZM928.341 263.697C929.653 266.488 932.059 268.785 935.559 270.591C939.058 272.396 942.339 272.998 945.347 272.396C948.354 271.794 950.596 270.044 952.127 267.144C953.549 264.354 953.658 261.619 952.346 258.883C951.088 256.148 948.628 253.905 945.073 252.044C941.464 250.184 938.183 249.528 935.23 250.02C932.278 250.513 930.09 252.209 928.669 255.053C927.192 257.953 927.083 260.798 928.395 263.643L928.341 263.697Z" fill="#601C1D"/>
<path d="M909.42 280.767C912.264 279.837 915.162 279.727 918.115 280.384C921.068 281.095 923.911 282.627 926.536 284.979C929.161 287.332 931.02 290.012 932.114 292.967C933.207 295.921 933.481 298.821 932.879 301.775C932.278 304.729 930.911 307.41 928.669 309.927C926.536 312.334 924.075 313.92 921.396 314.741C918.716 315.562 915.982 315.507 913.193 314.741C910.405 313.92 907.78 312.388 905.319 310.2C904.663 309.598 904.171 309.106 903.843 308.778L921.505 289.192C918.607 286.675 915.654 285.472 912.701 285.526C909.749 285.581 907.124 286.894 904.827 289.465C903.077 291.435 902.093 293.514 901.984 295.647C901.874 297.781 902.202 299.641 903.023 301.173L899.906 304.62C898.867 303.088 898.156 301.282 897.718 299.204C897.336 297.125 897.445 294.936 898.046 292.584C898.703 290.231 899.96 288.043 901.874 285.909C904.062 283.502 906.577 281.806 909.366 280.876L909.42 280.767ZM910.951 306.808C913.193 308.832 915.654 309.872 918.388 309.927C921.122 310.036 923.474 308.996 925.442 306.808C927.302 304.784 928.122 302.377 927.958 299.641C927.794 296.906 926.645 294.28 924.403 291.873L910.951 306.808Z" fill="#601C1D"/>
<path d="M892.469 302.212C890.719 303.416 889.571 304.346 889.079 305.057C888.587 305.768 888.477 306.479 888.805 307.355C889.133 308.175 889.899 309.488 891.157 311.349L899.031 322.783C900.343 324.643 901.273 325.901 901.929 326.448C902.585 326.995 903.296 327.214 904.171 326.995C904.991 326.776 906.304 326.065 908.053 324.862L909.967 327.652L900.015 334.49L896.133 328.801C896.68 331.317 896.57 333.615 895.859 335.749C895.094 337.882 893.672 339.688 891.539 341.11C889.133 342.751 886.782 343.353 884.54 342.752C882.298 342.204 880.494 340.946 879.181 338.977C878.306 337.718 877.759 336.351 877.541 334.928C877.322 333.506 877.486 332.193 878.088 331.098L882.353 328.144L884.048 330.606C883.337 331.098 883.009 331.81 883.009 332.74C883.009 333.67 883.337 334.545 883.884 335.366C884.595 336.405 885.47 337.007 886.618 337.226C887.766 337.445 888.915 337.116 890.172 336.241C892.414 334.709 893.453 332.466 893.399 329.457C893.344 326.448 892.196 323.384 890.008 320.157L886.29 314.686C884.978 312.826 884.048 311.622 883.337 311.02C882.681 310.473 881.861 310.364 880.876 310.692C879.892 311.02 878.361 311.896 876.283 313.318L874.314 310.473L890.61 299.258L892.578 302.157L892.469 302.212Z" fill="#601C1D"/>
<path d="M837.185 328.144C839.263 328.472 841.341 329.074 843.309 329.949C844.622 330.442 845.442 330.661 845.77 330.551C846.208 330.442 846.317 329.895 846.098 328.91L845.223 325.518L849.27 324.479L853.043 338.976L849.051 340.016C848.012 338.156 846.59 336.624 844.786 335.311C842.981 333.998 840.903 333.177 838.607 332.74C836.31 332.302 834.013 332.411 831.662 333.013C829.037 333.67 827.178 334.819 825.975 336.46C824.827 338.046 824.499 339.906 825.046 341.985C825.483 343.681 826.413 344.94 827.78 345.815C829.147 346.636 830.733 347.237 832.537 347.456C834.342 347.73 836.693 347.894 839.646 347.949C843.2 348.113 846.098 348.332 848.231 348.66C850.418 348.988 852.387 349.809 854.246 351.122C856.05 352.435 857.308 354.35 858.019 356.976C859.003 360.751 858.402 364.088 856.269 366.987C854.137 369.887 850.856 371.911 846.481 373.06C843.747 373.771 841.396 373.99 839.482 373.607C837.568 373.279 835.763 372.677 833.959 371.911C832.92 371.419 832.209 371.2 831.881 371.255C831.443 371.364 831.334 372.021 831.662 373.17L832.373 375.905L828.327 376.944L824.499 362.282L828.491 361.243C830.022 364.307 832.209 366.55 835.107 367.917C837.951 369.285 841.013 369.559 844.294 368.738C846.973 368.027 848.996 366.878 850.473 365.182C851.949 363.486 852.387 361.626 851.84 359.547C851.457 358.125 850.692 357.085 849.434 356.374C848.176 355.663 846.754 355.225 845.169 355.006C843.583 354.787 841.396 354.678 838.552 354.623C834.834 354.514 831.826 354.295 829.475 353.912C827.124 353.529 824.936 352.654 822.968 351.231C820.999 349.809 819.632 347.675 818.867 344.776C817.882 341.001 818.32 337.663 820.179 334.819C822.038 331.919 825.264 329.895 829.803 328.691C832.701 327.925 835.162 327.706 837.294 328.089L837.185 328.144Z" fill="#601C1D"/>
<path d="M804.54 334.874C807.11 336.351 809.133 338.43 810.609 341.056C812.086 343.737 812.851 346.855 812.851 350.411C812.851 353.967 812.14 357.14 810.719 359.931C809.297 362.721 807.274 364.854 804.704 366.441C802.134 367.973 799.181 368.794 795.845 368.794C792.619 368.794 789.83 368.082 787.424 366.605C785.018 365.128 783.214 363.104 781.956 360.532C780.698 357.906 780.042 354.952 780.042 351.67C780.042 350.794 780.042 350.083 780.097 349.591L806.454 349.481C806.344 345.652 805.251 342.643 803.227 340.509C801.204 338.375 798.47 337.281 795.025 337.281C792.346 337.281 790.213 337.992 788.572 339.305C786.932 340.673 785.784 342.15 785.182 343.737H780.589C781.026 341.931 781.847 340.181 783.104 338.539C784.362 336.843 786.112 335.476 788.244 334.382C790.377 333.287 792.892 332.74 795.736 332.74C799.017 332.74 801.915 333.451 804.54 334.929V334.874ZM786.33 353.475C786.33 356.484 787.205 359.001 789.01 361.08C790.814 363.158 793.111 364.198 796.064 364.198C798.798 364.198 801.149 363.213 803.118 361.244C805.032 359.274 806.18 356.703 806.508 353.42H786.385L786.33 353.475Z" fill="#601C1D"/>
<path d="M768.449 332.466C770.582 334.545 772.058 337.007 772.824 340.016C773.589 342.97 773.535 346.198 772.66 349.645C771.785 353.091 770.309 355.991 768.231 358.343C766.153 360.696 763.692 362.282 760.794 363.158C757.896 364.033 754.888 364.033 751.662 363.212C748.545 362.446 745.975 361.024 744.061 359C742.147 356.976 740.835 354.568 740.233 351.724C739.632 348.879 739.796 345.87 740.561 342.642C740.78 341.766 740.999 341.11 741.108 340.672L766.7 347.128C767.574 343.408 767.246 340.235 765.825 337.609C764.403 335.037 761.997 333.287 758.716 332.466C756.146 331.809 753.904 331.919 751.935 332.849C750.021 333.779 748.545 334.928 747.561 336.35L743.077 335.201C743.952 333.56 745.209 332.083 746.85 330.77C748.49 329.457 750.514 328.527 752.865 327.98C755.216 327.433 757.786 327.542 760.52 328.253C763.692 329.074 766.371 330.496 768.504 332.521L768.449 332.466ZM746.139 345.979C745.428 348.879 745.647 351.559 746.85 354.021C748.053 356.483 750.076 358.07 752.92 358.781C755.599 359.437 758.114 359.109 760.466 357.687C762.817 356.264 764.567 354.021 765.715 350.958L746.194 346.034L746.139 345.979Z" fill="#601C1D"/>
<path d="M741.71 326.886C739.796 325.956 738.374 325.464 737.5 325.409C736.625 325.3 735.914 325.628 735.422 326.284C734.875 326.941 734.164 328.309 733.18 330.388L722.571 353.037C721.587 355.116 721.04 356.538 720.876 357.359C720.712 358.18 720.876 358.891 721.532 359.547C722.189 360.149 723.446 360.915 725.36 361.845L723.884 365.018L712.729 359.821L727.711 327.871C728.641 325.847 729.188 324.424 729.407 323.549C729.571 322.674 729.407 321.962 728.75 321.361C728.149 320.759 726.891 319.993 724.923 319.117L726.399 315.944L743.187 323.822L741.71 326.996V326.886Z" fill="#601C1D"/>
<path d="M717.43 311.95C718.633 314.631 719.071 317.53 718.688 320.539C718.305 323.548 717.048 326.503 714.97 329.402C712.892 332.302 710.431 334.435 707.642 335.803C704.853 337.171 701.955 337.773 698.948 337.499C695.94 337.226 693.097 336.131 690.417 334.162C687.793 332.247 685.988 330.004 684.894 327.433C683.801 324.861 683.527 322.126 684.074 319.281C684.566 316.436 685.824 313.646 687.793 310.965C688.339 310.254 688.722 309.707 689.05 309.324L710.376 324.861C712.564 321.688 713.439 318.625 713.056 315.725C712.673 312.771 711.087 310.309 708.353 308.284C706.22 306.698 704.088 305.987 701.955 306.096C699.823 306.206 698.018 306.753 696.596 307.683L692.878 304.947C694.3 303.744 695.995 302.814 698.018 302.212C700.041 301.61 702.229 301.501 704.635 301.884C707.041 302.267 709.337 303.306 711.689 304.947C714.313 306.862 716.282 309.16 717.485 311.895L717.43 311.95ZM691.73 316.217C689.98 318.625 689.214 321.196 689.378 323.931C689.597 326.667 690.855 328.855 693.206 330.606C695.448 332.247 697.909 332.794 700.588 332.411C703.322 331.974 705.728 330.551 707.97 328.089L691.675 316.272L691.73 316.217Z" fill="#601C1D"/>
<path d="M695.776 293.185C695.776 294.334 695.339 295.319 694.464 296.194C693.589 297.07 692.605 297.507 691.457 297.453C690.308 297.453 689.324 296.96 688.449 296.085C687.574 295.21 687.137 294.225 687.137 293.131C687.137 292.036 687.574 291.052 688.449 290.176C689.324 289.301 690.308 288.863 691.402 288.863C692.496 288.863 693.48 289.301 694.355 290.176C695.23 291.052 695.667 292.036 695.667 293.185H695.776Z" fill="#601C1D"/>
</g>
</g>
<defs>
<clipPath id="clip0_6080_189">
<rect width="974" height="377" fill="white"/>
</clipPath>
</defs>
</svg>
