<svg width="296" height="190" viewBox="0 0 296 190" fill="none" xmlns="http://www.w3.org/2000/svg">
<path d="M258.543 102.551C296.016 113.942 296.841 135.257 271.755 162.347C254.801 181.562 232.683 191.257 207.913 189.862C193.525 188.431 164.801 182.551 159.302 167.557C154.857 153.588 167.489 134.922 177.046 124.114C184.881 115.443 193.542 109.668 204.452 105.642C221.018 99.7432 241.274 98.5599 258.227 102.463L258.526 102.551H258.543Z" fill="#601D1D"/>
<path d="M70.9189 101.278C91.8245 106.47 110.939 120.316 122.481 138.575C129.033 149.419 135.024 163.193 125.748 174.213C119.16 181.86 108.163 184.756 98.571 187.299C74.6082 192.95 48.555 189.453 28.5978 174.672C15.2111 165.472 -9.91101 129.445 4.14329 114.84C10.3096 108.448 19.4098 105.905 30.056 102.973C43.2495 99.5652 57.5849 98.3287 70.5851 101.208L70.9013 101.278H70.9189Z" fill="#601D1D"/>
<path d="M144.965 0.0870303C161.005 3.54836 177.835 27.6541 181.787 43.3184C189.728 72.5631 185.02 99.7067 166.205 123.441C142.576 156.907 115.539 125.578 106.263 98.5408C97.567 76.6247 98.0588 51.0888 109.056 30.1442C116.101 18.1354 129.014 -1.30807 144.684 0.0694069L144.93 0.104707L144.965 0.0870303Z" fill="#601D1D"/>
</svg>
