<svg width="274" height="266" viewBox="0 0 274 266" fill="none" xmlns="http://www.w3.org/2000/svg">
<path d="M243.775 99.11C273.094 116.225 269.492 134.106 242.863 151.495C224.685 163.999 204.069 167.54 183.451 161.324C171.6 157.198 148.552 146.447 146.936 132.866C146.003 120.351 160.423 107.419 170.666 100.39C179.026 94.7841 187.498 91.754 197.514 90.6353C212.68 89.116 230.009 92.2685 243.526 98.9725L243.76 99.107L243.775 99.11Z" fill="#601D1D"/>
<path d="M57.7159 90.9719C75.7655 90.7151 94.2736 97.9556 107.633 110.463C115.323 117.954 123.204 127.976 118.133 139.038C114.492 146.746 106.238 151.505 99.042 155.67C80.9116 165.498 59.0737 168.262 39.6769 160.434C26.8236 155.77 -1.43388 131.604 6.71052 116.563C10.2871 109.977 17.085 105.918 25.0473 101.205C34.9643 95.5509 46.2836 91.4333 57.4304 90.9864L57.7017 90.9757L57.7159 90.9719Z" fill="#601D1D"/>
<path d="M134.725 0.0739342C148.428 3.01443 162.807 23.4929 166.185 36.8001C172.969 61.6442 168.946 84.7028 152.871 104.866C132.684 133.296 109.584 106.682 101.659 83.7132C94.23 65.0948 94.6502 43.4012 104.046 25.6082C110.064 15.4065 121.097 -1.11123 134.484 0.0589628L134.695 0.0889514L134.725 0.0739342Z" fill="#601D1D"/>
<path d="M131.117 258.467C117.414 255.526 103.035 235.048 99.6584 221.74C92.8738 196.897 96.8963 173.838 112.972 153.674C133.159 125.245 156.258 151.859 164.183 174.828C171.613 193.446 171.193 215.14 161.797 232.933C155.778 243.134 144.746 259.652 131.358 258.482L131.148 258.452L131.117 258.467Z" fill="#601D1D"/>
</svg>
