<svg width="220" height="197" viewBox="0 0 220 197" fill="none" xmlns="http://www.w3.org/2000/svg">
<g clip-path="url(#clip0_6080_111)">
<path d="M189.84 3.39336C190.151 7.92167 189.036 11.636 187.921 16.4017C186.183 23.1179 184.871 30.2581 182.001 36.5672C176.935 48.5749 168.031 58.1574 157.93 66.6713C152.093 72.0137 144.813 76.186 148.47 78.0855C151.666 79.3061 155.504 79.0015 159.8 79.0857C168.31 79.0857 177.935 79.0857 186.741 79.0857C194.283 79.1198 201.219 78.9841 206.466 79.1879C217.6 79.3577 220.518 84.3099 219.928 93.9432C217.616 115.923 206.499 144.603 191.037 160.291C178.116 172.705 163.587 183.407 147.273 190.072C139.549 193.481 132.58 196.619 124.3 196.89C113.56 197.45 102.656 195.72 91.8341 194.974C75.3382 192.769 59.6626 185.171 45.4135 176.674C23.6217 162.971 6.48668 136.92 1.50195 110.598C0.583711 102.864 -2.85969 82.5119 5.33888 79.9343C21.3917 77.7968 47.709 79.7304 65.2048 79.0523C67.0741 78.8318 76.1579 79.2387 74.5348 76.7626C72.026 74.4559 59.515 68.2994 55.5141 63.2284C44.774 51.5938 33.4599 35.821 31.3611 19.4545C30.5741 13.722 29.5902 5.54729 31.5087 2.85064C32.9188 0.272718 36.0671 0.0183168 38.9202 0.0183168C65.5328 0.0183168 159.702 -0.0325633 184.084 0.0352769C186.986 0.204877 189.413 0.0691972 189.855 3.2916V3.42728L189.84 3.39336Z" fill="#601D1D"/>
</g>
<defs>
<clipPath id="clip0_6080_111">
<rect width="220" height="197" fill="white"/>
</clipPath>
</defs>
</svg>
