<svg width="221" height="198" viewBox="0 0 221 198" fill="none" xmlns="http://www.w3.org/2000/svg">
<g clip-path="url(#clip0_6080_105)">
<path d="M130.676 0.130675C138.163 -0.477451 145.73 1.16614 153.09 2.39882C164.297 4.02597 175.631 11.0441 185.129 18.8347C195.219 27.0854 207.001 36.306 212.413 47.9261C221.528 68.3887 223.045 91.8591 218.575 113.702C214.249 128.609 209.571 143.845 200.168 156.468C187.541 170.915 172.263 184.393 153.824 189.29C142.649 193.63 132.32 198.298 120.602 197.985C92.0899 198.429 44.6922 177.834 26.5887 154.792C20.2987 146.739 16.3396 137.403 12.125 128.544C8.02223 119.422 3.2968 110.086 1.2853 100.225C-1.22109 86.7971 0.662742 74.5028 0.934131 60.6474C1.84409 49.7997 3.63209 38.837 11.9016 32.4435C20.1711 26.2307 31.1385 33.6927 33.15 43.1268C35.5926 53.0212 32.1282 63.5072 33.1979 73.9604C33.7088 79.4498 34.6187 85.0707 35.7681 90.4456C39.0887 105.534 43.862 121.838 53.0574 134.379C60.6404 145.062 72.0709 152.195 83.8367 157.372C104.032 167.267 130.548 169.239 150.359 156.517C167.25 146.64 181.729 131.995 186.087 111.812C188.179 101.342 189.472 89.7717 186.774 79.401C183.166 67.5669 176.637 55.8482 166.978 48.452C150.935 37.6208 128.025 33.7255 110.577 43.7514C103.425 48.189 97.7574 54.6319 95.9056 62.9156C93.7345 74.1412 93.7505 89.9857 103.952 96.9705C112.205 101.885 107.464 87.7338 107.975 81.1754C108.039 77.3624 109.124 73.6482 110.848 70.3282C119.165 56.7357 139.903 53.0376 152.084 63.7702C163.626 73.8782 166.133 90.5439 163.434 105.057C160.688 119.488 148.412 130.763 135.673 136.005C125.024 139.506 110.305 138.997 99.6573 136.729C92.5533 134.921 87.5244 130.697 81.6016 125.898C64.0568 111.993 59.2355 100.471 57.0166 78.4636C56.1385 64.5591 62.2529 51.5748 67.9361 39.3137C80.0531 15.8597 105.5 2.79328 130.388 0.130675H130.676Z" fill="#601D1D"/>
</g>
<defs>
<clipPath id="clip0_6080_105">
<rect width="221" height="198" fill="white"/>
</clipPath>
</defs>
</svg>
