<svg width="542" height="362" viewBox="0 0 542 362" fill="none" xmlns="http://www.w3.org/2000/svg">
<g clip-path="url(#clip0_6080_322)">
<path d="M377.16 185.82C408.574 185.82 434.04 160.354 434.04 128.94C434.04 97.5261 408.574 72.0601 377.16 72.0601C345.746 72.0601 320.28 97.5261 320.28 128.94C320.28 160.354 345.746 185.82 377.16 185.82Z" stroke="#601C1C" stroke-miterlimit="10"/>
<path d="M255.51 346.98C332.117 346.98 394.22 284.877 394.22 208.27C394.22 131.663 332.117 69.5601 255.51 69.5601C178.902 69.5601 116.8 131.663 116.8 208.27C116.8 284.877 178.902 346.98 255.51 346.98Z" stroke="#601C1C" stroke-miterlimit="10"/>
<path d="M477.87 126.54C512.675 126.54 540.89 98.325 540.89 63.52C540.89 28.715 512.675 0.5 477.87 0.5C443.065 0.5 414.85 28.715 414.85 63.52C414.85 98.325 443.065 126.54 477.87 126.54Z" stroke="#601C1C" stroke-miterlimit="10"/>
<path d="M400.26 320.92C418.761 320.92 433.76 305.921 433.76 287.42C433.76 268.918 418.761 253.92 400.26 253.92C381.758 253.92 366.76 268.918 366.76 287.42C366.76 305.921 381.758 320.92 400.26 320.92Z" stroke="#601C1C" stroke-miterlimit="10"/>
<path d="M131.35 360.65C155.573 360.65 175.21 341.013 175.21 316.79C175.21 292.567 155.573 272.93 131.35 272.93C107.127 272.93 87.4902 292.567 87.4902 316.79C87.4902 341.013 107.127 360.65 131.35 360.65Z" stroke="#601C1C" stroke-miterlimit="10"/>
<path d="M96.92 199.75C150.171 199.75 193.34 156.581 193.34 103.33C193.34 50.0789 150.171 6.91016 96.92 6.91016C43.6687 6.91016 0.5 50.0789 0.5 103.33C0.5 156.581 43.6687 199.75 96.92 199.75Z" stroke="#601C1C" stroke-miterlimit="10"/>
<path d="M391.72 193.75C396.437 193.75 400.26 189.926 400.26 185.21C400.26 180.493 396.437 176.67 391.72 176.67C387.004 176.67 383.18 180.493 383.18 185.21C383.18 189.926 387.004 193.75 391.72 193.75Z" fill="#9E4B67"/>
<path d="M116.8 204.94C121.516 204.94 125.34 201.116 125.34 196.4C125.34 191.683 121.516 187.86 116.8 187.86C112.083 187.86 108.26 191.683 108.26 196.4C108.26 201.116 112.083 204.94 116.8 204.94Z" fill="#86C6B3"/>
<path d="M191.87 92.1C196.587 92.1 200.41 88.2765 200.41 83.56C200.41 78.8435 196.587 75.02 191.87 75.02C187.154 75.02 183.33 78.8435 183.33 83.56C183.33 88.2765 187.154 92.1 191.87 92.1Z" fill="#FFD769"/>
<path d="M331.8 100.64C336.516 100.64 340.34 96.8166 340.34 92.1001C340.34 87.3835 336.516 83.5601 331.8 83.5601C327.083 83.5601 323.26 87.3835 323.26 92.1001C323.26 96.8166 327.083 100.64 331.8 100.64Z" fill="#8D83B5"/>
<path d="M425.69 109.18C430.406 109.18 434.23 105.357 434.23 100.64C434.23 95.9236 430.406 92.1001 425.69 92.1001C420.973 92.1001 417.15 95.9236 417.15 100.64C417.15 105.357 420.973 109.18 425.69 109.18Z" fill="#86C6B3"/>
<path d="M174.79 329.46C179.507 329.46 183.33 325.636 183.33 320.92C183.33 316.203 179.507 312.38 174.79 312.38C170.073 312.38 166.25 316.203 166.25 320.92C166.25 325.636 170.073 329.46 174.79 329.46Z" fill="#8D83B5"/>
<path d="M131.35 281.46C136.067 281.46 139.89 277.636 139.89 272.92C139.89 268.203 136.067 264.38 131.35 264.38C126.634 264.38 122.81 268.203 122.81 272.92C122.81 277.636 126.634 281.46 131.35 281.46Z" fill="#EB9E27"/>
<path d="M385.7 267.47C390.417 267.47 394.24 263.647 394.24 258.93C394.24 254.214 390.417 250.39 385.7 250.39C380.984 250.39 377.16 254.214 377.16 258.93C377.16 263.647 380.984 267.47 385.7 267.47Z" fill="#FFD769"/>
<path d="M366.76 300.76C371.477 300.76 375.3 296.937 375.3 292.22C375.3 287.504 371.477 283.68 366.76 283.68C362.044 283.68 358.22 287.504 358.22 292.22C358.22 296.937 362.044 300.76 366.76 300.76Z" fill="#B3AC26"/>
</g>
<defs>
<clipPath id="clip0_6080_322">
<rect width="541.39" height="361.15" fill="white"/>
</clipPath>
</defs>
</svg>
