<svg width="547" height="370" viewBox="0 0 547 370" fill="none" xmlns="http://www.w3.org/2000/svg">
<g clip-path="url(#clip0_6080_290)">
<path d="M333.18 114.26C364.594 114.26 390.06 88.794 390.06 57.38C390.06 25.966 364.594 0.5 333.18 0.5C301.766 0.5 276.3 25.966 276.3 57.38C276.3 88.794 301.766 114.26 333.18 114.26Z" stroke="#601C1C" stroke-miterlimit="10"/>
<path d="M211.86 319.97C268.668 319.97 314.72 273.918 314.72 217.11C314.72 160.302 268.668 114.25 211.86 114.25C155.052 114.25 109 160.302 109 217.11C109 273.918 155.052 319.97 211.86 319.97Z" stroke="#601C1C" stroke-miterlimit="10"/>
<path d="M419.58 319.98C489.196 319.98 545.63 263.545 545.63 193.93C545.63 124.314 489.196 67.8799 419.58 67.8799C349.965 67.8799 293.53 124.314 293.53 193.93C293.53 263.545 349.965 319.98 419.58 319.98Z" stroke="#601C1C" stroke-miterlimit="10"/>
<path d="M131.35 369.38C155.573 369.38 175.21 349.743 175.21 325.52C175.21 301.297 155.573 281.66 131.35 281.66C107.127 281.66 87.49 301.297 87.49 325.52C87.49 349.743 107.127 369.38 131.35 369.38Z" stroke="#601C1C" stroke-miterlimit="10"/>
<path d="M96.92 208.49C150.171 208.49 193.34 165.321 193.34 112.07C193.34 58.8186 150.171 15.6499 96.92 15.6499C43.6687 15.6499 0.5 58.8186 0.5 112.07C0.5 165.321 43.6687 208.49 96.92 208.49Z" stroke="#601C1C" stroke-miterlimit="10"/>
<path d="M295.92 169.75C300.636 169.75 304.46 165.926 304.46 161.21C304.46 156.493 300.636 152.67 295.92 152.67C291.203 152.67 287.38 156.493 287.38 161.21C287.38 165.926 291.203 169.75 295.92 169.75Z" fill="#9E4B67"/>
<path d="M109.85 217.01C114.567 217.01 118.39 213.187 118.39 208.47C118.39 203.754 114.567 199.93 109.85 199.93C105.134 199.93 101.31 203.754 101.31 208.47C101.31 213.187 105.134 217.01 109.85 217.01Z" fill="#86C6B3"/>
<path d="M193.34 122.79C198.057 122.79 201.88 118.966 201.88 114.25C201.88 109.533 198.057 105.71 193.34 105.71C188.624 105.71 184.8 109.533 184.8 114.25C184.8 118.966 188.624 122.79 193.34 122.79Z" fill="#FFD769"/>
<path d="M323.26 122.79C327.976 122.79 331.8 118.966 331.8 114.25C331.8 109.533 327.976 105.71 323.26 105.71C318.543 105.71 314.72 109.533 314.72 114.25C314.72 118.966 318.543 122.79 323.26 122.79Z" fill="#8D83B5"/>
<path d="M387.7 80.8002C392.416 80.8002 396.24 76.9767 396.24 72.2602C396.24 67.5437 392.416 63.7202 387.7 63.7202C382.983 63.7202 379.16 67.5437 379.16 72.2602C379.16 76.9767 382.983 80.8002 387.7 80.8002Z" fill="#86C6B3"/>
<path d="M308.18 261.78C312.897 261.78 316.72 257.957 316.72 253.24C316.72 248.524 312.897 244.7 308.18 244.7C303.464 244.7 299.64 248.524 299.64 253.24C299.64 257.957 303.464 261.78 308.18 261.78Z" fill="#B3AC26"/>
<path d="M174.79 324.87C179.507 324.87 183.33 321.047 183.33 316.33C183.33 311.614 179.507 307.79 174.79 307.79C170.073 307.79 166.25 311.614 166.25 316.33C166.25 321.047 170.073 324.87 174.79 324.87Z" fill="#8D83B5"/>
<path d="M131.35 290.2C136.067 290.2 139.89 286.377 139.89 281.66C139.89 276.944 136.067 273.12 131.35 273.12C126.634 273.12 122.81 276.944 122.81 281.66C122.81 286.377 126.634 290.2 131.35 290.2Z" fill="#EB9E27"/>
</g>
<defs>
<clipPath id="clip0_6080_290">
<rect width="546.13" height="369.89" fill="white"/>
</clipPath>
</defs>
</svg>
