<svg width="547" height="370" viewBox="0 0 547 370" fill="none" xmlns="http://www.w3.org/2000/svg">
<g clip-path="url(#clip0_6080_305)">
<path d="M212.2 114.26C243.614 114.26 269.08 88.794 269.08 57.38C269.08 25.966 243.614 0.5 212.2 0.5C180.786 0.5 155.32 25.966 155.32 57.38C155.32 88.794 180.786 114.26 212.2 114.26Z" stroke="#601C1C" stroke-miterlimit="10"/>
<path d="M352.7 208.58C409.508 208.58 455.56 162.528 455.56 105.72C455.56 48.9119 409.508 2.85986 352.7 2.85986C295.892 2.85986 249.84 48.9119 249.84 105.72C249.84 162.528 295.892 208.58 352.7 208.58Z" stroke="#601C1C" stroke-miterlimit="10"/>
<path d="M420.01 368.55C489.625 368.55 546.06 312.116 546.06 242.5C546.06 172.885 489.625 116.45 420.01 116.45C350.394 116.45 293.96 172.885 293.96 242.5C293.96 312.116 350.394 368.55 420.01 368.55Z" stroke="#601C1C" stroke-miterlimit="10"/>
<path d="M256.9 286.1C290.418 286.1 317.59 258.928 317.59 225.41C317.59 191.892 290.418 164.72 256.9 164.72C223.382 164.72 196.21 191.892 196.21 225.41C196.21 258.928 223.382 286.1 256.9 286.1Z" stroke="#601C1C" stroke-miterlimit="10"/>
<path d="M89.73 227.3C139.01 227.3 178.96 187.35 178.96 138.07C178.96 88.7895 139.01 48.8398 89.73 48.8398C40.4496 48.8398 0.5 88.7895 0.5 138.07C0.5 187.35 40.4496 227.3 89.73 227.3Z" stroke="#601C1C" stroke-miterlimit="10"/>
<path d="M201.55 337.36C223.503 337.36 241.3 319.563 241.3 297.61C241.3 275.657 223.503 257.86 201.55 257.86C179.596 257.86 161.8 275.657 161.8 297.61C161.8 319.563 179.596 337.36 201.55 337.36Z" stroke="#601C1C" stroke-miterlimit="10"/>
<path d="M269.07 174.25C273.786 174.25 277.61 170.426 277.61 165.71C277.61 160.993 273.786 157.17 269.07 157.17C264.353 157.17 260.53 160.993 260.53 165.71C260.53 170.426 264.353 174.25 269.07 174.25Z" fill="#9E4B67"/>
<path d="M307.33 202.13C312.047 202.13 315.87 198.306 315.87 193.59C315.87 188.873 312.047 185.05 307.33 185.05C302.614 185.05 298.79 188.873 298.79 193.59C298.79 198.306 302.614 202.13 307.33 202.13Z" fill="#86C6B3"/>
<path d="M249.84 107.91C254.556 107.91 258.38 104.087 258.38 99.3701C258.38 94.6536 254.556 90.8301 249.84 90.8301C245.123 90.8301 241.3 94.6536 241.3 99.3701C241.3 104.087 245.123 107.91 249.84 107.91Z" fill="#FFD769"/>
<path d="M266.92 57.37C271.636 57.37 275.46 53.5466 275.46 48.83C275.46 44.1135 271.636 40.29 266.92 40.29C262.203 40.29 258.38 44.1135 258.38 48.83C258.38 53.5466 262.203 57.37 266.92 57.37Z" fill="#8D83B5"/>
<path d="M298.79 279.7C303.507 279.7 307.33 275.877 307.33 271.16C307.33 266.444 303.507 262.62 298.79 262.62C294.073 262.62 290.25 266.444 290.25 271.16C290.25 275.877 294.073 279.7 298.79 279.7Z" fill="#B3AC26"/>
<path d="M455.56 131.33C460.277 131.33 464.1 127.507 464.1 122.79C464.1 118.073 460.277 114.25 455.56 114.25C450.844 114.25 447.02 118.073 447.02 122.79C447.02 127.507 450.844 131.33 455.56 131.33Z" fill="#EB9E27"/>
<path d="M161.8 94.6298C166.516 94.6298 170.34 90.8063 170.34 86.0898C170.34 81.3733 166.516 77.5498 161.8 77.5498C157.083 77.5498 153.26 81.3733 153.26 86.0898C153.26 90.8063 157.083 94.6298 161.8 94.6298Z" fill="#EB9E27"/>
<path d="M239.05 294.64C243.766 294.64 247.59 290.817 247.59 286.1C247.59 281.384 243.766 277.56 239.05 277.56C234.333 277.56 230.51 281.384 230.51 286.1C230.51 290.817 234.333 294.64 239.05 294.64Z" fill="#EB9E27"/>
<path d="M201.55 266.4C206.266 266.4 210.09 262.576 210.09 257.86C210.09 253.143 206.266 249.32 201.55 249.32C196.833 249.32 193.01 253.143 193.01 257.86C193.01 262.576 196.833 266.4 201.55 266.4Z" fill="#86C6B3"/>
</g>
<defs>
<clipPath id="clip0_6080_305">
<rect width="546.56" height="369.04" fill="white"/>
</clipPath>
</defs>
</svg>
